<?xml version="1.0" encoding="UTF-8" standalone="no"?>
<svg
   xmlns:dc="http://purl.org/dc/elements/1.1/"
   xmlns:cc="http://creativecommons.org/ns#"
   xmlns:rdf="http://www.w3.org/1999/02/22-rdf-syntax-ns#"
   xmlns:svg="http://www.w3.org/2000/svg"
   xmlns="http://www.w3.org/2000/svg"
   xmlns:sodipodi="http://sodipodi.sourceforge.net/DTD/sodipodi-0.dtd"
   xmlns:inkscape="http://www.inkscape.org/namespaces/inkscape"
   version="1.1"
   x="0px"
   y="0px"
   viewBox="0 0 100 125"
   enable-background="new 0 0 100 100"
   xml:space="preserve"
   id="svg2"
   inkscape:version="0.91 r13725"
   sodipodi:docname="brand.svg"><metadata
     id="metadata26"><rdf:RDF><cc:Work
         rdf:about=""><dc:format>image/svg+xml</dc:format><dc:type
           rdf:resource="http://purl.org/dc/dcmitype/StillImage" /><dc:title></dc:title></cc:Work></rdf:RDF></metadata><defs
     id="defs24" /><sodipodi:namedview
     pagecolor="#ffffff"
     bordercolor="#666666"
     borderopacity="1"
     objecttolerance="10"
     gridtolerance="10"
     guidetolerance="10"
     inkscape:pageopacity="0"
     inkscape:pageshadow="2"
     inkscape:window-width="1284"
     inkscape:window-height="762"
     id="namedview22"
     showgrid="false"
     inkscape:zoom="1.888"
     inkscape:cx="50"
     inkscape:cy="62.5"
     inkscape:window-x="1"
     inkscape:window-y="0"
     inkscape:window-maximized="0"
     inkscape:current-layer="g3354" /><g
     id="g3354"><path
       inkscape:connector-curvature="0"
       d="m 9,63.5 c 4.795,0.629 9.841,-3.832 13.756,-6.056 3.757,-2.134 7.005,-5.056 8.919,-9 3.79,-7.807 11.726,-18.139 21.032,-18.7 5.219,-0.315 12.486,-0.783 14.759,4.949 -10.27,1.884 -9.515,16.543 -0.446,19.75 3.287,1.163 8.518,1.193 12.055,0.819 4.912,-0.52 9.464,-4.603 14.381,-3.975 1.923,3.363 -1.767,10.557 -2.518,14.144 -0.949,4.536 -3.941,9.078 -6.486,12.508 -2.781,3.749 -6.969,8.078 -10.897,10.817 -4.564,3.183 -11.179,4.619 -16.597,5.806 C 46.624,96.827 36.94,93.502 28.063,88.993 24.568,87.218 20.241,85.042 17.562,81.923 15.994,80.097 14.937,77.707 14.007,75.568 12.869,72.951 10.882,70.627 9.75,68 9.244,66.823 8.863,65.036 9,64.25"
       id="path6"
       style="fill:#195773;fill-opacity:1" /><g
       id="g8"
       style="fill:#195773;fill-opacity:1"><g
         id="g10"
         style="fill:#195773;fill-opacity:1"><path
           id="path12"
           d="M49.75,97.5c-26.054,0-47.25-21.532-47.25-48c0-26.467,21.196-48,47.25-48S97,23.033,97,49.5    C97,75.968,75.804,97.5,49.75,97.5z M49.75,6.5C26.453,6.5,7.5,25.79,7.5,49.5c0,23.71,18.953,43,42.25,43S92,73.21,92,49.5    C92,25.79,73.047,6.5,49.75,6.5z"
           style="fill:#195773;fill-opacity:1" /></g><g
         id="g14"
         style="fill:#195773;fill-opacity:1"><path
           id="path16"
           d="M10.934,65.486c-1.819,0-3.748-0.341-5.841-1.157l1.815-4.658c5.084,1.979,8.781-0.023,13.899-2.795    c0.662-0.358,1.336-0.724,2.029-1.088c4.718-2.484,8.913-10.874,10.929-14.906c4.642-9.283,15.195-15.906,24.505-15.412    c6.015,0.32,10.647,3.672,12.709,9.195l1.457,3.903l-4.129-0.55c-1.671-0.225-3.078,0.154-4.184,1.119    c-1.45,1.266-2.321,3.479-2.329,5.921c-0.017,5.202,4.14,7.111,7.629,7.798c4.238,0.835,9.725,0.384,14.68-1.204    c1.48-0.475,2.806-1.1,4.087-1.706c2.229-1.053,4.535-2.142,7.57-2.435l0.48,4.977c-2.168,0.209-3.904,1.029-5.915,1.979    c-1.361,0.643-2.904,1.372-4.697,1.946c-5.723,1.834-12.142,2.337-17.17,1.349c-7.325-1.44-11.686-6.195-11.664-12.721    c0.013-3.917,1.486-7.442,4.042-9.672c1.087-0.948,2.321-1.624,3.665-2.014c-1.897-2.14-4.438-2.783-6.498-2.893    c-6.407-0.334-15.588,4.297-19.767,12.655c-3.599,7.199-7.674,14.252-13.071,17.094c-0.675,0.355-1.332,0.712-1.977,1.061    C19.22,63.422,15.408,65.486,10.934,65.486z"
           style="fill:#195773;fill-opacity:1" /></g></g></g></svg>