<svg xmlns="http://www.w3.org/2000/svg" viewBox="0 0 100 125"><g fill="#195773"><path d="M9 63.5c4.795.63 9.84-3.832 13.756-6.056 3.757-2.134 7.005-5.056 8.92-9 3.79-7.807 11.725-18.14 21.03-18.7 5.22-.315 12.487-.783 14.76 4.95-10.27 1.883-9.515 16.542-.446 19.75 3.287 1.162 8.518 1.192 12.055.818 4.912-.52 9.464-4.603 14.38-3.975C95.38 54.65 91.69 61.844 90.94 65.43c-.95 4.537-3.94 9.08-6.486 12.51-2.78 3.748-6.97 8.077-10.897 10.816-4.564 3.183-11.18 4.62-16.597 5.806-10.334 2.265-20.018-1.06-28.895-5.57-3.495-1.774-7.822-3.95-10.5-7.07-1.57-1.825-2.626-4.215-3.556-6.354-1.14-2.618-3.128-4.94-4.26-7.568-.506-1.177-.887-2.964-.75-3.75"/><path d="M49.75 97.5c-26.054 0-47.25-21.532-47.25-48 0-26.467 21.196-48 47.25-48S97 23.033 97 49.5c0 26.468-21.196 48-47.25 48zm0-91C26.453 6.5 7.5 25.79 7.5 49.5s18.953 43 42.25 43S92 73.21 92 49.5s-18.953-43-42.25-43z"/><path d="M10.934 65.486c-1.82 0-3.748-.34-5.84-1.157l1.814-4.66c5.084 1.98 8.78-.023 13.9-2.795.66-.358 1.335-.724 2.028-1.088 4.718-2.484 8.913-10.874 10.93-14.906 4.64-9.28 15.194-15.904 24.504-15.41 6.015.32 10.647 3.672 12.71 9.195l1.456 3.903-4.13-.55c-1.67-.225-3.077.154-4.183 1.12-1.45 1.265-2.32 3.478-2.33 5.92-.016 5.202 4.14 7.11 7.63 7.798 4.238.835 9.725.384 14.68-1.204 1.48-.475 2.806-1.1 4.087-1.706 2.23-1.053 4.535-2.142 7.57-2.435l.48 4.98c-2.168.21-3.904 1.03-5.915 1.98-1.36.64-2.904 1.37-4.697 1.944-5.723 1.834-12.142 2.337-17.17 1.35-7.325-1.44-11.686-6.196-11.664-12.722.013-3.916 1.486-7.44 4.042-9.67 1.087-.95 2.32-1.625 3.665-2.015-1.895-2.14-4.436-2.783-6.496-2.893-6.407-.334-15.588 4.297-19.767 12.655-3.6 7.2-7.674 14.25-13.07 17.093-.676.356-1.333.713-1.978 1.062-3.97 2.15-7.78 4.214-12.255 4.214z"/></g></svg>