<svg xmlns="http://www.w3.org/2000/svg" viewBox="0 0 128 128"><path fill="#A80030" d="M76.77 68.974c.74-.577 1.41-1.16 2.008-1.73-1.667.41-3.363.418-5.073.262-2.05.028.388 1.056 3.065 1.468zm7.94-4.212c1.222-1.685 2.11-3.53 2.425-5.438-.274 1.36-1.01 2.534-1.707 3.773-3.833 2.414-.36-1.433-.002-2.895-4.12 5.188-.566 3.11-.716 4.56zm4.063-10.57c.248-3.693-.727-2.525-1.055-1.117.383.2.685 2.603 1.055 1.117zM65.93 3.722c1.094.196 2.365.347 2.186.608 1.197-.262 1.47-.504-2.186-.608zm2.133.704l.053-.095-.773.16zM65.27 80.73c-2.95-1.38-5.653-3.468-7.874-6.02 1.178 1.725 2.45 3.402 4.096 4.72-2.783-.942-6.5-6.742-7.584-6.978 4.796 8.587 19.457 15.06 27.135 11.848-3.553.13-8.065.073-12.057-1.402-1.536-.79-3.573-2.355-3.59-2.87-.076.202-.205.4-.126.702zm.156-.797l-.03.097.03-.097zm44.05-33.588c.032-1.882.522-.986.712-1.45-.37-.212-1.34-1.655-1.93-4.423.428-.65 1.143 1.686 1.726 1.78-.375-2.2-1.02-3.877-1.045-5.567-1.7-3.553-.604.474-1.983-1.525-1.81-5.646 1.502-1.31 1.725-3.875 2.743 3.974 4.308 10.134 5.026 12.685-.55-3.11-1.434-6.123-2.515-9.04.833.352-1.342-6.4 1.083-1.93-2.59-9.53-11.085-18.435-18.9-22.613.955.875 2.163 1.975 1.73 2.146-3.888-2.314-3.205-2.495-3.76-3.472-3.168-1.286-3.376.105-5.473.004-5.968-3.165-7.118-2.83-12.61-4.813l.25 1.17c-3.955-1.318-4.607.5-8.88.003-.26-.203 1.37-.735 2.71-.93-3.823.504-3.644-.753-7.384.14.92-.647 1.896-1.076 2.88-1.626-3.117.19-7.44 1.814-6.107.336C51.65 5.613 42.62 8.798 37.55 13.55l-.158-1.065C35.07 15.272 27.266 20.81 26.645 24.42l-.62.145c-1.21 2.046-1.992 4.365-2.95 6.47-1.58 2.693-2.317 1.036-2.09 1.46-3.11 6.3-4.654 11.597-5.987 15.94.95 1.42.022 8.552.382 14.26-1.56 28.19 19.784 55.558 43.115 61.878 3.42 1.222 8.506 1.176 12.832 1.302-5.105-1.46-5.765-.773-10.735-2.508-3.587-1.69-4.373-3.617-6.914-5.82l1.006 1.776c-4.982-1.763-2.897-2.182-6.95-3.466l1.073-1.402c-1.615-.123-4.277-2.72-5.004-4.16l-1.767.068c-2.122-2.618-3.253-4.505-3.17-5.967l-.572 1.018c-.647-1.11-7.807-9.822-4.092-7.793-.69-.63-1.608-1.026-2.603-2.833l.754-.865c-1.788-2.298-3.29-5.248-3.177-6.23.954 1.29 1.616 1.53 2.27 1.75-4.514-11.204-4.767-.618-8.187-11.405l.724-.058c-.555-.837-.89-1.744-1.337-2.634l.314-3.138c-3.25-3.76-.91-15.982-.44-22.686.327-2.727 2.715-5.628 4.53-10.178l-1.105-.19c2.115-3.69 12.08-14.82 16.693-14.248 2.235-2.81-.443-.01-.88-.718 4.91-5.082 6.453-3.59 9.767-4.504 3.573-2.12-3.066.827-1.373-.81 6.18-1.577 4.38-3.586 12.44-4.387.85.484-1.974.747-2.683 1.375 5.147-2.518 16.29-1.946 23.524 1.397 8.397 3.924 17.832 15.524 18.204 26.44l.423.11c-.213 4.34.665 9.356-.86 13.965l1.04-2.182c.12 3.316-.97 4.925-1.956 7.773l-1.772.884c-1.45 2.816.14 1.788-.896 4.03-2.265 2.012-6.87 6.297-8.345 6.688-1.077-.024.73-1.27.964-1.76-3.03 2.083-2.43 3.126-7.065 4.39l-.137-.3C71.6 82.674 55.72 72.018 55.93 57.474c-.123.924-.347.692-.6 1.067-.59-7.482 3.455-14.997 10.277-18.064 6.674-3.305 14.497-1.948 19.276 2.507-2.625-3.44-7.85-7.085-14.046-6.744-6.066.095-11.742 3.95-13.636 8.136-3.107 1.957-3.467 7.544-4.822 8.565-1.822 13.395 3.428 19.18 12.31 25.986.717.484.8.757.738 1.005l.01-.02c10.478 3.916 21.302 2.967 30.367-4.3 2.306-1.797 4.825-4.853 5.553-4.896-1.096 1.65.188.793-.655 2.25 2.3-3.708-1-1.51 2.376-6.402l1.247 1.716c-.463-3.076 3.82-6.813 3.385-11.677.982-1.487 1.097 1.6.053 5.025 1.447-3.798.38-4.408.755-7.542.4 1.053.928 2.173 1.2 3.284-.944-3.67.966-6.182 1.438-8.314-.462-.204-1.45 1.624-1.677-2.71zm-58.44 25.413c1.35 1.83 2.418 3.814 4.14 5.245-1.24-2.417-2.158-3.415-3.85-6.683l-.29 1.438zm3.474-1.563c-.713-.79-1.136-1.738-1.608-2.685.453 1.663 1.377 3.09 2.24 4.545l-.632-1.86zm52.5-.093c2.02-3.797 3.326-7.952 3.875-12.16l-.302.756c-.553 3.922-1.745 7.805-3.573 11.404zM71.214 2.126c-1.917.16-3.825.257-5.71.5l.83.113c1.388-.51 3.41-.28 4.88-.615zm-52.987 28.65c1.424-3.208-.395-1.15-.552-2.008.22 2.846-2.19 3.924.552 2.007zM15.39 38.01c-1.776 2.27-.818 2.752-1.005 4.296.642-1.972.76-3.156 1.004-4.296z"/></svg>