<svg xmlns="http://www.w3.org/2000/svg" viewBox="0 0 128 128"><path fill="#F34F29" d="M124.742 58.378L69.625 3.264c-3.172-3.174-8.32-3.174-11.497 0L46.685 14.71l14.518 14.518c3.375-1.14 7.243-.375 9.932 2.314 2.703 2.706 3.462 6.607 2.293 9.993L87.42 55.53c3.385-1.168 7.292-.414 9.994 2.294 3.78 3.777 3.78 9.9 0 13.68-3.78 3.78-9.9 3.78-13.683 0-2.84-2.845-3.543-7.02-2.103-10.522L68.58 47.932l-.003 34.342c.922.455 1.79 1.063 2.56 1.828 3.778 3.777 3.778 9.898 0 13.683-3.78 3.777-9.905 3.777-13.68 0-3.778-3.784-4.088-9.905-.31-13.683.933-.933 1.854-1.638 2.854-2.11v-34.66c-1-.47-1.92-1.17-2.855-2.11-2.86-2.86-3.396-7.06-1.928-10.576L40.983 20.333 3.23 58.123c-3.176 3.177-3.156 8.325.02 11.5l55.125 55.114c3.173 3.174 8.325 3.174 11.503 0l54.86-54.858c3.175-3.178 3.178-8.33.004-11.503z"/></svg>