<svg xmlns="http://www.w3.org/2000/svg" viewBox="0 0 128 128"><path fill="#83CD29" d="M112.678 30.334L68.535 4.73c-2.78-1.585-6.424-1.585-9.227 0L14.82 30.333c-2.87 1.65-4.82 4.754-4.82 8.073V89.55c0 3.318 1.992 6.422 4.862 8.082l11.73 6.688c5.626 2.772 7.185 2.772 9.745 2.772 8.334 0 12.662-5.04 12.662-13.828v-50.49c0-.713.444-1.774-.257-1.774H43.12c-.71 0-2.12 1.06-2.12 1.773v50.49c0 3.896-3.616 7.773-10.202 4.48L18.676 90.73c-.422-.23-.676-.693-.676-1.18V38.406c0-.482.463-.966.89-1.213l44.38-25.56c.414-.236 1-.236 1.414 0l43.963 25.554c.42.253.354.722.354 1.22v51.14c0 .49.094.964-.32 1.2l-44.134 25.575c-.378.227-.87.227-1.285 0l-11.316-6.75c-.34-.197-.752-.268-1.08-.085-3.145 1.783-3.73 2.02-6.68 3.043-.726.254-1.798.693.41 1.93l14.797 8.754c1.417.82 3.028 1.246 4.648 1.246 1.642 0 3.25-.426 4.666-1.246l43.976-25.582c2.87-1.672 4.32-4.764 4.32-8.083V38.405c0-3.32-1.45-6.414-4.322-8.073zm-34.95 51.11c-11.728 0-14.31-3.234-15.17-9.065-.103-.63-.635-1.38-1.275-1.38h-5.73c-.71 0-1.28.86-1.28 1.565 0 7.466 4.06 16.512 23.454 16.512 14.038 0 22.088-5.455 22.088-15.11 0-9.57-6.467-12.083-20.082-13.885-13.762-1.82-15.16-2.738-15.16-5.962 0-2.657 1.184-6.202 11.374-6.202 9.104 0 12.46 1.954 13.84 8.09.12.578.647.992 1.242.992h5.752c.354 0 .69-.143.94-.396.24-.272.366-.613.335-.98-.893-10.568-7.913-15.493-22.112-15.493-12.632 0-20.166 5.336-20.166 14.277 0 9.698 7.496 12.378 19.62 13.577 14.506 1.422 15.634 3.542 15.634 6.395 0 4.955-3.978 7.066-13.308 7.066z"/></svg>