<svg xmlns="http://www.w3.org/2000/svg" viewBox="0 0 128 128"><path fill-rule="evenodd" clip-rule="evenodd" fill="#80B5E2" d="M50.246 41.616c-3.682-.925-7.37-.628-11.26-.022 0 6.805-.014 13.427.037 20.05.002.34.51.93.84.974 4.244.573 8.464.62 12.432-1.315 4.105-2 6.196-6.182 5.654-11.092-.494-4.47-3.14-7.446-7.705-8.593zM127 63.963V3.285C127 1.19 127.023 1 124.988 1H3.478C1.5 1 1 1.19 1 3.186v121.51c0 2.017.252 2.02 2.21 2.02 40.554 0 81.23-.01 121.785.037 1.573.002 1.995-.417 1.99-1.96-.053-20.276.015-40.555.015-60.83zm-70.648 5.84C50.795 71.785 45 71.896 39 71.43V94H28v-1.402c0-18.895-.087-37.788-.14-56.682-.006-1.57.243-2.327 2.01-2.507 8.333-.854 16.618-1.81 24.903.13 8.906 2.088 14.04 7.976 14.43 16.11.484 10.075-3.943 16.975-12.85 20.15zm44.31 12.754c-.424 5.77-3.678 9.56-9.015 11.392-7.142 2.45-14.245 1.88-21.225-.893-1.143-.455-1.364-1.03-.987-2.196.687-2.125 1.19-4.31 1.72-6.285 2.95.866 5.757 1.947 8.664 2.458 2.05.36 4.27.15 6.357-.178 1.87-.294 3.217-1.564 3.524-3.572.313-2.04-.302-3.81-2.104-4.895-1.432-.863-3.01-1.48-4.523-2.203-2.433-1.163-5.026-2.075-7.27-3.53-8.83-5.727-5.956-16.383-.063-20.396 3.154-2.146 6.643-3.098 10.378-3.23 4.393-.153 8.623.605 12.778 2.624l-2.195 7.79c-1.74-.617-3.36-1.417-5.07-1.735-2.027-.38-4.155-.59-6.203-.423-2.746.225-4.354 2.12-4.354 4.47 0 1.392.528 2.57 1.69 3.245 1.665.97 3.433 1.768 5.185 2.58 1.896.876 3.898 1.55 5.723 2.55 4.87 2.67 7.406 6.8 6.993 12.424z"/></svg>