<svg xmlns="http://www.w3.org/2000/svg" viewBox="0 0 128 128"><path fill-rule="evenodd" clip-rule="evenodd" fill="#336791" d="M123.258 76.784c-.45-2.918-2.9-4.83-5.752-4.958-1.032-.047-2.08.06-3.11.192-1.242.158-2.47.438-3.71.623-.857.13-1.726.19-2.582.277l-.02-.11c1.597-3.02 3.262-6.004 4.774-9.065 1.16-2.347 2.15-4.78 3.176-7.193 1.696-4 3.05-8.12 4.173-12.31 1.075-4.01 1.995-8.066 2.284-12.227.118-1.66.198-3.33.19-4.994-.01-1.328-.15-2.657-.285-3.98-.15-1.516-.608-2.953-1.242-4.336-.836-1.82-2.132-3.316-3.496-4.736-1.092-1.137-2.293-2.173-3.484-3.208-1.698-1.477-3.607-2.656-5.59-3.703-2.253-1.19-4.62-2.12-7.09-2.75-1.493-.38-3.02-.664-4.532-.966-.543-.11-1.09-.336-1.632-.336h-10.24c-.37 0-.738.19-1.11.233-2.453.273-4.876.735-7.23 1.464-.88.274-1.683.1-2.52.025-.64-.058-1.27-.23-1.91-.262-2.443-.122-4.888-.3-7.33-.275-2.338.024-4.653.41-6.917 1.052-1.894.538-3.75 1.195-5.446 2.19-.727.427-1.303.347-2.055.13-2.528-.73-5.073-1.414-7.64-1.99-1.6-.357-3.245-.535-4.88-.706-1.565-.164-3.143-.262-4.717-.295-1.538-.034-3.087-.033-4.618.103-2.44.216-4.832.712-7.158 1.512-2.583.888-4.95 2.175-7.086 3.865-2.166 1.715-3.904 3.81-5.302 6.2-1.473 2.523-2.483 5.224-3.11 8.06-.34 1.538-.556 3.118-.79 4.68-.072.485.733.97-.267 1.455v6.794c1 .45.21.902.267 1.355.14 1.09.262 2.187.446 3.268.29 1.71.636 3.417.988 5.117.49 2.375 1.003 4.748 1.547 7.11.396 1.72.847 3.43 1.32 5.132.72 2.597 1.43 5.2 2.245 7.77.758 2.386 1.625 4.74 2.485 7.092 1.19 3.255 2.617 6.405 4.327 9.424 1.48 2.614 3.17 5.062 5.436 7.076 1.494 1.327 3.157 2.347 5.093 2.857 1.522.4 3.068.448 4.625.13 1.805-.37 3.403-1.148 4.824-2.31.162-.136.34-.238.534.01.735.93 1.72 1.55 2.748 2.087 2.777 1.448 5.803 1.882 8.877 2.06.744.042 1.496-.065 2.246-.086 1.46-.04 2.88-.324 4.278-.73.732-.21 1.447-.48 2.192-.73.04.793.09 1.557.112 2.32l.104 4.167c.02.634.045 1.27.104 1.9.15 1.628.3 3.256.493 4.878.134 1.118.274 2.245.537 3.336.53 2.204 1.246 4.35 2.158 6.43.895 2.04 2.182 3.763 3.9 5.184 2.22 1.836 4.822 2.62 7.632 2.764 1.162.06 2.357.004 3.5-.204 1.814-.33 3.623-.743 5.388-1.275 3.59-1.085 6.695-2.957 9.014-5.98 1.32-1.726 2.403-3.59 3.1-5.65.573-1.7 1.114-3.42 1.544-5.16.34-1.37.508-2.787.715-4.188.136-.926.22-1.862.304-2.796.14-1.517.283-3.033.384-4.553.07-1.057.067-2.12.11-3.18.012-.323.064-.644.094-.966.028-.298.178-.4.482-.396 1.07.017 2.144.045 3.212-.003 1.197-.054 2.405-.105 3.583-.303 1.676-.28 3.345-.635 4.99-1.066 1.942-.508 3.724-1.418 5.44-2.455 1.997-1.208 3.82-2.624 5.296-4.448 1.285-1.59 1.894-3.43 1.584-5.438zm-3.412.982c-.066.915-.485 1.7-1.093 2.37-2.87 3.162-6.468 5.08-10.585 6.026-1.564.358-3.178.544-4.78.692-1.362.126-2.745.147-4.113.097-1.006-.036-2.004-.266-3.032-.414-.103.94-.2 1.92-.32 2.896l-.48 3.746c-.144 1.187-.257 2.378-.406 3.564-.146 1.15-.328 2.298-.48 3.45-.144 1.07-.25 2.148-.408 3.218-.247 1.64-.48 3.284-.8 4.91-.385 1.946-.974 3.83-1.935 5.584-1.172 2.14-2.834 3.772-4.95 4.98-2.18 1.246-4.562 1.894-6.978 2.436-1.71.384-3.472.447-5.204.29-3.004-.27-5.568-1.556-7.506-3.885-1.85-2.223-3.102-4.77-3.55-7.655-.214-1.37-.368-2.754-.49-4.136-.137-1.537-.23-3.08-.3-4.62-.09-1.957-.154-3.914-.197-5.87-.052-2.407-.07-4.813-.103-7.22l-.006-.09c-1.222.733-2.425 1.537-3.7 2.2-1.495.775-3.118 1.225-4.8 1.352-1.317.1-2.652.19-3.964.086-2.15-.173-4.3-.51-6.226-1.57-.782-.43-1.597-.952-2.135-1.64-1.29-1.645-.672-3.725 1.273-4.726 1.344-.693 2.81-.982 4.268-1.32 1.266-.292 2.526-.625 3.76-1.028 1.223-.4 1.994-1.39 2.755-2.363l1.208-1.55c-.503-.054-.977-.108-1.45-.152-1.44-.135-2.813-.53-4.126-1.113-1.123-.497-1.14-.55-1.964.343-1.376 1.494-2.714 3.023-4.062 4.542-.992 1.117-1.978 2.24-2.965 3.36-.98 1.11-1.894 2.28-2.947 3.31-1.564 1.532-3.45 2.453-5.698 2.35-1.443-.067-2.764-.573-3.952-1.4-2.452-1.708-4.104-4.097-5.608-6.606-1.927-3.216-3.406-6.64-4.672-10.16-.876-2.43-1.756-4.866-2.52-7.333-.832-2.68-1.56-5.396-2.278-8.11-.542-2.048-1.023-4.113-1.482-6.182-.52-2.353-1.022-4.71-1.464-7.08-.3-1.598-.47-3.22-.713-4.83-.325-2.17-.385-4.36-.267-6.54.104-1.962.386-3.92.666-5.87.388-2.698 1.277-5.244 2.556-7.648.783-1.473 1.755-2.812 2.88-4.056 1.844-2.04 4.077-3.517 6.56-4.625 1.737-.774 3.57-1.24 5.44-1.604 2.774-.54 5.573-.52 8.373-.46 1.224.025 2.443.248 3.666.37 2.635.26 5.216.815 7.764 1.5 1.857.497 3.676 1.142 5.518 1.702.186.055.457.05.608-.05 2.496-1.628 5.224-2.703 8.125-3.318 1.1-.233 2.237-.335 3.363-.407 1.37-.087 2.75-.167 4.115-.088 1.643.093 3.277.335 4.91.56.79.107 1.564.382 2.358.457.38.036.784-.242 1.186-.335 2.05-.473 4.09-1 6.156-1.374 1.538-.278 3.11-.41 4.675-.5 1.745-.1 3.503-.172 5.247-.088 2.205.106 4.394.42 6.555.923 2.676.624 5.244 1.53 7.685 2.785 1.824.938 3.558 2.026 5.12 3.364 1.022.877 2.07 1.744 2.993 2.722 1.14 1.206 2.303 2.413 3.018 3.958.538 1.165.922 2.37 1.028 3.647.132 1.585.292 3.177.277 4.765-.014 1.52-.22 3.037-.37 4.552-.332 3.454-1.083 6.833-1.995 10.167-.754 2.754-1.635 5.478-2.59 8.17-.878 2.48-1.892 4.917-2.917 7.343-.757 1.794-1.572 3.57-2.458 5.303-1.678 3.286-3.422 6.538-5.44 9.633-.347.536-.677 1.084-1.017 1.63.88.594 1.877.803 2.88.91.956.105 1.93.167 2.884.096 1.527-.114 3.05-.33 4.567-.545 1.504-.21 2.978-.638 4.522-.525 1.542.112 2.645 1.284 2.54 2.73zm-22.013-3.353c-.655-.846-1.323-1.682-1.964-2.538-1.008-1.344-1.73-2.845-2.457-4.353-.688-1.43-1.532-2.782-2.257-4.195-1.265-2.465-2.553-4.922-3.718-7.435-1.466-3.157-2.62-6.426-2.985-9.923-.154-1.48-.193-2.96.106-4.426.48-2.34 1.702-4.172 3.76-5.428 1.905-1.165 4.03-1.54 6.207-1.66 1.35-.072 2.708-.012 4.11-.012l-.047-.237c-.87-1.823-1.686-3.677-2.64-5.457-1.346-2.51-3.068-4.776-4.986-6.876-1.42-1.555-2.96-2.998-4.646-4.273-1.658-1.253-3.405-2.374-5.27-3.29-2.222-1.094-4.537-1.94-6.966-2.478-2.334-.517-4.683-.834-7.077-.86-2.042-.022-4.07.07-6.06.53-3.002.696-5.748 1.932-8.137 3.934-1.334 1.118-2.498 2.373-3.517 3.77-1.194 1.643-2.16 3.417-2.984 5.277-1.132 2.553-1.91 5.21-2.44 7.94-.266 1.36-.474 2.733-.686 4.105-.075.48-.08.97-.124 1.52.37-.19.635-.34.907-.47l.885-.398c2.993-1.37 6.094-2.25 9.427-2.15 1.416.044 2.77.324 4.03.944 2.415 1.192 3.828 3.217 4.442 5.78.424 1.77.714 3.573.996 5.372.22 1.405.447 2.825.473 4.242.037 2.07-.068 4.146-.18 6.216-.097 1.764-.465 3.5-1.08 5.146-1.12 2.993-2.37 5.937-3.535 8.913-.383.982-.68 2-1.043 3.08.562 0 1.018-.003 1.474.003.18.003.36.008.533.05 1.34.315 2.502.922 3.455 1.953 1.27 1.37 1.938 2.972 1.972 4.825.018 1.027-.09 2.057-.085 3.084.02 4.785.057 9.57.097 14.356.007.782.046 1.565.102 2.346.117 1.634.235 3.27.395 4.9.11 1.158.266 2.313.45 3.462.26 1.628 1 3.077 1.84 4.462.724 1.19 1.665 2.203 2.905 2.9 2.107 1.187 4.376 1.286 6.663.85 1.544-.296 3.06-.77 4.56-1.26 1.48-.48 2.816-1.268 3.938-2.353 1.05-1.018 1.797-2.26 2.3-3.63.976-2.66 1.28-5.46 1.684-8.238.15-1.04.282-2.083.42-3.125.157-1.186.316-2.37.468-3.556.112-.882.214-1.767.322-2.65.154-1.268.317-2.535.464-3.804.113-.98.21-1.966.31-2.95.128-1.255.267-2.51.378-3.77.086-.954.05-1.926.22-2.863.31-1.718 1.123-3.18 2.646-4.125.637-.395 1.356-.655 2.063-.99l-.12-.185zM40.236 67.36c-.76-1.8-1.218-3.68-1.354-5.62-.128-1.826.09-3.644.276-5.46.182-1.76.333-3.53.386-5.297.088-2.906-.108-5.808-.247-8.712-.084-1.727.117-3.477.27-5.21.14-1.56.313-3.126.608-4.664.495-2.58 1.152-5.125 2.086-7.59.89-2.34 1.908-4.616 3.347-6.666.986-1.407 2.105-2.72 3.18-4.095l-.32-.113c-3.497-1.11-7.052-1.98-10.708-2.358-1.73-.18-3.465-.284-5.2-.387-.53-.032-1.07.04-1.605.09-1.322.127-2.66.177-3.96.425-2.215.42-4.34 1.13-6.306 2.282-1.767 1.035-3.25 2.373-4.49 3.978-1.374 1.772-2.297 3.776-2.96 5.913-.783 2.52-1.156 5.115-1.257 7.733-.088 2.295-.132 4.603.264 6.89.295 1.7.492 3.42.817 5.116.443 2.31.918 4.617 1.467 6.904.786 3.274 1.57 6.553 2.5 9.787.89 3.1 1.894 6.17 2.98 9.204.89 2.474 1.92 4.904 3.005 7.302.706 1.562 1.56 3.065 2.457 4.528.954 1.554 2.038 3.028 3.51 4.155 1.855 1.423 3.292 1.644 5.178.083.808-.67 1.49-1.495 2.194-2.282 1.117-1.25 2.195-2.534 3.307-3.788 1.416-1.598 2.85-3.18 4.273-4.77.3-.335.59-.68.883-1.02l-.484-.426c-1.768-1.7-3.138-3.67-4.094-5.93zm53.688-47.568c1.156 1.356 2.275 2.752 3.31 4.204 2 2.81 3.597 5.842 4.774 9.087.52 1.43.937 2.874.75 4.44-.128 1.095-.117 2.207-.214 3.31-.08.916-.226 1.828-.345 2.742-.18 1.378-.438 2.752-.515 4.136-.073 1.32.003 2.65.086 3.97.085 1.34.266 2.676.39 4.015.14 1.518.325 3.036.37 4.557.033 1.25-.078 2.507-.187 3.754-.13 1.502-.51 2.956-1.08 4.35-.398.983-.875 1.935-1.326 2.918l.18.192.276.213.277-.497c2.34-3.687 4.42-7.517 6.223-11.492 1.16-2.56 2.245-5.155 3.287-7.765 1.624-4.064 2.91-8.242 3.903-12.503.446-1.914.787-3.856 1.09-5.798.236-1.518.433-3.054.477-4.586.047-1.625-.043-3.263-.193-4.884-.112-1.224-.414-2.456-1.18-3.45-1.234-1.603-2.565-3.135-4.202-4.347-1.378-1.02-2.75-2.068-4.23-2.927-2.345-1.36-4.883-2.266-7.535-2.883-2.588-.603-5.21-.863-7.85-.918-1.555-.034-3.118.133-4.67.28-1.408.13-2.806.356-4.223.542 1.52.855 3.02 1.615 4.433 2.51 2.973 1.884 5.637 4.15 7.924 6.832zM55.3 72.514c.96-3.073 2.27-6.007 3.537-8.96 1.028-2.393 1.59-4.915 1.777-7.505.093-1.28.067-2.57.004-3.853-.07-1.423-.185-2.85-.392-4.26-.266-1.8-.57-3.602-.995-5.37-.46-1.913-1.625-3.245-3.62-3.736-1.217-.3-2.425-.286-3.654-.092-3.002.472-5.75 1.578-8.31 3.198-.515.326-.798.59-.71 1.328.19 1.565.23 3.155.223 4.735-.01 2.236-.106 4.472-.19 6.707-.03.728-.134 1.452-.21 2.177-.12 1.11-.353 2.22-.346 3.327.007 1.143.124 2.31.4 3.418.88 3.506 2.745 6.376 5.8 8.4 1.88 1.246 3.958 1.874 6.24 1.993.155-.523.293-1.02.446-1.51zm-3.587-30.087c-.402-.844-.172-1.543.76-1.867.227-.08.46-.165.697-.188.324-.032.654-.008.982-.008 1.182.006 2.32.17 3.295.923.626.482.794 1.122.39 1.78-.576.93-1.453 1.4-2.53 1.49-1.697.14-2.888-.65-3.594-2.13zm47.04-.308c.136-1.126.245-2.253.384-3.377.056-.452-.182-.574-.56-.585-1.193-.034-2.385-.076-3.577-.098-1.344-.024-2.652.192-3.896.703-1.38.568-2.43 1.478-2.86 2.98-.32 1.12-.406 2.24-.293 3.41.174 1.785.57 3.517 1.195 5.176.834 2.22 1.707 4.44 2.75 6.57 1.413 2.88 3.012 5.67 4.513 8.506.4.757.738 1.547 1.156 2.43.875-1.852 1.302-3.707 1.35-5.62.042-1.61-.087-3.228-.18-4.84-.06-.985-.2-1.965-.295-2.95-.135-1.37-.338-2.74-.37-4.114-.03-1.397.07-2.802.19-4.197.112-1.338.333-2.665.494-3.997zm-2.69-1.084c-.442 1.223-1.39 1.913-2.617 2.116-1.145.188-2.148-.235-2.894-1.148-.53-.65-.328-1.42.468-1.86.914-.505 1.92-.633 3.104-.71.322.06.807.108 1.268.24.67.19.916.692.672 1.362zm-35.42 37.66c-.656-.535-1.522-.566-2.145.02-.773.73-1.453 1.566-2.133 2.39-.785.95-1.52 1.94-2.534 2.676-1.472 1.07-3.19 1.515-4.917 1.935-1.373.334-2.752.644-4.13.965l-.016.178c.41.19.805.426 1.23.56 2.1.666 4.237.997 6.456.81 1.602-.137 3.128-.486 4.574-1.172 1.99-.943 3.52-2.437 4.823-4.175.217-.29.316-.72.342-1.093.09-1.32-.582-2.303-1.55-3.093zm51.75.526c-1.69.18-3.382.373-5.077.47-.818.047-1.648-.11-2.474-.176-1.385-.112-2.737-.42-3.908-1.16-.678-.427-1.24-.475-1.96-.233-1.03.346-1.868.872-2.116 1.986-.17.752-.23 1.532-.298 2.303-.013.136.157.386.287.42.793.21 1.59.456 2.4.53.997.09 2.01.06 3.014.01 1.085-.054 2.175-.124 3.24-.304 2.517-.423 4.95-1.11 7.11-2.537.78-.515 1.55-1.04 2.326-1.562l-.064-.11c-.825.124-1.647.274-2.477.36z"/></svg>