<svg xmlns="http://www.w3.org/2000/svg" viewBox="0 0 128 128"><path fill="#FFD845" d="M49.33 62h29.16C86.605 62 93 55.132 93 46.98V19.184c0-7.912-6.632-13.856-14.555-15.176-5.014-.835-10.195-1.215-15.187-1.19-4.99.022-9.612.447-13.805 1.19C37.098 6.187 35 10.757 35 19.183V30h29v4H23.776C15.292 34 7.862 39.108 5.54 48.81c-2.682 11.12-2.8 17.92 0 29.53C7.613 86.984 12.57 93 21.053 93H31V79.952C31 70.315 39.428 62 49.33 62zm-1.838-39.11c-3.026 0-5.478-2.48-5.478-5.545 0-3.08 2.45-5.58 5.478-5.58 3.015 0 5.48 2.5 5.48 5.58-.002 3.066-2.466 5.545-5.48 5.545zm74.79 25.92c-2.1-8.447-6.104-14.81-14.6-14.81H97v12.98C97 57.03 88.206 65 78.49 65H49.33C41.342 65 35 72.326 35 80.326v27.8c0 7.91 6.745 12.564 14.462 14.834 9.242 2.717 17.994 3.208 29.05 0C85.863 120.83 93 116.55 93 108.126V97H64v-4h43.682c8.484 0 11.647-5.776 14.6-14.66 3.046-9.145 2.915-17.8 0-29.53zm-41.956 55.607c3.027 0 5.48 2.48 5.48 5.547 0 3.076-2.452 5.58-5.48 5.58-3.015 0-5.478-2.503-5.478-5.58 0-3.068 2.463-5.547 5.478-5.547z"/></svg>