<svg xmlns="http://www.w3.org/2000/svg" viewBox="0 0 128 128"><path fill="#DD4814" d="M64 3.246C30.445 3.246 3.245 30.446 3.245 64c0 33.552 27.2 60.754 60.755 60.754 33.554 0 60.755-27.202 60.755-60.754 0-33.554-27.2-60.754-60.755-60.754zm13.63 20.922c2.243-3.88 7.2-5.21 11.08-2.972 3.88 2.242 5.21 7.2 2.967 11.08-2.238 3.88-7.197 5.208-11.077 2.967-3.877-2.24-5.206-7.198-2.97-11.075zM64 28.763c3.262 0 6.417.453 9.414 1.28.53 3.26 2.463 6.263 5.548 8.043 3.08 1.775 6.642 1.953 9.725.79 5.998 5.897 9.9 13.918 10.47 22.853L87.6 61.9C86.53 49.795 76.376 40.305 64 40.305c-3.565 0-6.948.792-9.98 2.203l-5.637-10.1C53.09 30.078 58.393 28.76 64 28.76zm-41.31 43.35c-4.483 0-8.114-3.633-8.114-8.113 0-4.48 3.63-8.113 8.113-8.113 4.477 0 8.11 3.63 8.11 8.113 0 4.48-3.633 8.112-8.11 8.112zm7.19.72c2.56-2.09 4.2-5.27 4.2-8.833 0-3.565-1.64-6.747-4.2-8.836 2.194-8.49 7.475-15.738 14.57-20.483l5.932 9.936C44.29 48.902 40.308 55.986 40.308 64s3.98 15.098 10.074 19.383l-5.93 9.937c-7.1-4.744-12.38-11.995-14.572-20.486zM88.71 106.8c-3.878 2.24-8.837.912-11.076-2.97-2.24-3.876-.91-8.834 2.97-11.075 3.876-2.24 8.837-.908 11.076 2.97 2.24 3.88.91 8.838-2.97 11.075zm-.023-17.673c-3.083-1.166-6.645-.99-9.725.788-3.084 1.783-5.02 4.782-5.547 8.042-2.998.83-6.153 1.284-9.415 1.284-5.607 0-10.91-1.32-15.616-3.65l5.636-10.1c3.032 1.41 6.415 2.205 9.98 2.205 12.378 0 22.532-9.488 23.596-21.592l11.56.17c-.568 8.934-4.47 16.955-10.47 22.853z"/></svg>