<svg xmlns="http://www.w3.org/2000/svg" width="100" height="100" viewBox="0 0 100 100"><path d="M81.232 15.138H18.77a3.407 3.407 0 0 0-3.408 3.407v3.143a3.407 3.407 0 0 0 3.407 3.407H81.23a3.407 3.407 0 0 0 3.407-3.407v-3.143a3.407 3.407 0 0 0-3.408-3.407zM18.77 45.008h45.633A3.407 3.407 0 0 0 67.81 41.6V38.46a3.407 3.407 0 0 0-3.407-3.407H18.77a3.407 3.407 0 0 0-3.408 3.408V41.6a3.406 3.406 0 0 0 3.407 3.408zM74.403 74.905H18.77a3.407 3.407 0 0 0-3.408 3.407v3.143a3.407 3.407 0 0 0 3.407 3.407h55.633a3.407 3.407 0 0 0 3.407-3.407h.015v-3.143h-.015a3.408 3.408 0 0 0-3.407-3.407zM18.77 64.94h38.82a3.407 3.407 0 0 0 3.406-3.407V58.39a3.407 3.407 0 0 0-3.407-3.407H18.77a3.407 3.407 0 0 0-3.408 3.407v3.143a3.407 3.407 0 0 0 3.407 3.407z"/></svg>