<svg xmlns="http://www.w3.org/2000/svg" width="100" height="100" viewBox="0 0 100 100"><path d="M82.488 68.44V31.56a10.413 10.413 0 0 0 5.424-9.142C87.912 16.665 83.248 12 77.495 12c-3.56 0-6.698 1.79-8.577 4.513H31.083A10.402 10.402 0 0 0 22.506 12C16.753 12 12.09 16.666 12.09 22.42c0 3.944 2.19 7.375 5.423 9.143V68.44a10.413 10.413 0 0 0-5.424 9.143C12.09 83.335 16.752 88 22.505 88c4.37 0 8.107-2.695 9.653-6.512h35.68c1.547 3.816 5.283 6.512 9.654 6.512 5.753 0 10.417-4.664 10.417-10.417 0-3.942-2.19-7.372-5.422-9.14zm-55-.008V31.568a10.456 10.456 0 0 0 4.61-5.08h35.806a10.46 10.46 0 0 0 4.61 5.08v36.864a10.455 10.455 0 0 0-3.473 3.08H30.96a10.453 10.453 0 0 0-3.472-3.08z"/></svg>