<svg xmlns="http://www.w3.org/2000/svg" width="100" height="100" viewBox="0 0 100 100"><path d="M4.712 69.854L.022 98.127a1.606 1.606 0 0 0 .45 1.4v.004c.37.37.894.536 1.407.448l28.196-4.765c.594-.1 1.08-.525 1.264-1.1a1.605 1.605 0 0 0-.396-1.628l-5.513-5.513L40.234 72.17c.63-.63.63-1.647 0-2.277l-10.2-10.2a1.61 1.61 0 0 0-2.278 0l-14.8 14.8-5.516-5.515a1.61 1.61 0 0 0-2.727.876zM95.288 30.146l4.69-28.273a1.61 1.61 0 0 0-.45-1.4V.47A1.614 1.614 0 0 0 98.12.023L69.925 4.788a1.61 1.61 0 0 0-.87 2.728l5.514 5.513-14.802 14.8a1.61 1.61 0 0 0 0 2.278l10.2 10.2c.63.63 1.648.63 2.278 0l14.802-14.8 5.515 5.514a1.613 1.613 0 0 0 2.728-.876zM69.854 95.288l28.27 4.69a1.605 1.605 0 0 0 1.402-.45l.002-.002a1.61 1.61 0 0 0 .448-1.406L95.21 69.924a1.61 1.61 0 0 0-2.727-.87L86.97 74.57l-14.8-14.803a1.61 1.61 0 0 0-2.278 0l-10.2 10.202a1.61 1.61 0 0 0 0 2.277l14.8 14.802-5.514 5.515a1.612 1.612 0 0 0 .876 2.728zM30.146 4.712L1.874.022a1.605 1.605 0 0 0-1.4.45L.47.473c-.367.37-.534.892-.447 1.406L4.79 30.077c.1.593.524 1.08 1.098 1.264a1.604 1.604 0 0 0 1.63-.394l5.512-5.513 14.8 14.8c.63.63 1.648.63 2.278.002l10.2-10.2a1.61 1.61 0 0 0 0-2.28l-14.8-14.8 5.514-5.516a1.617 1.617 0 0 0 .394-1.63c-.184-.576-.674-1-1.27-1.098z"/></svg>