<svg xmlns="http://www.w3.org/2000/svg" width="100" height="100" viewBox="0 0 100 100"><path d="M35.995 89.365l4.69-28.272a1.61 1.61 0 0 0-.45-1.4v-.003a1.608 1.608 0 0 0-1.407-.447L10.63 64.007c-.594.1-1.08.525-1.264 1.1a1.607 1.607 0 0 0 .395 1.628l5.514 5.513L.474 87.05c-.63.63-.63 1.647 0 2.277l10.2 10.2c.63.63 1.647.63 2.277 0l14.803-14.8 5.515 5.514a1.614 1.614 0 0 0 1.63.395 1.608 1.608 0 0 0 1.097-1.27zM64.006 10.635l-4.69 28.273a1.61 1.61 0 0 0 .45 1.4v.003c.37.368.894.535 1.407.448l28.196-4.766a1.61 1.61 0 0 0 .868-2.728l-5.513-5.513 14.802-14.8a1.61 1.61 0 0 0 0-2.28L89.327.47a1.61 1.61 0 0 0-2.278 0L72.247 15.275 66.733 9.76a1.61 1.61 0 0 0-2.727.876zM89.365 64.006l-28.27-4.69a1.608 1.608 0 0 0-1.402.45l-.003.002c-.368.37-.535.892-.447 1.406l4.765 28.196c.1.594.525 1.082 1.1 1.264a1.607 1.607 0 0 0 1.628-.395l5.513-5.514L87.05 99.53a1.61 1.61 0 0 0 2.277-.003l10.2-10.2a1.61 1.61 0 0 0 0-2.278L84.727 72.247l5.516-5.515a1.612 1.612 0 0 0-.878-2.727zM10.635 35.995l28.272 4.69a1.605 1.605 0 0 0 1.4-.45l.003-.002a1.61 1.61 0 0 0 .448-1.406L35.993 10.63a1.61 1.61 0 0 0-1.1-1.264 1.604 1.604 0 0 0-1.628.395l-5.513 5.514-14.8-14.8A1.61 1.61 0 0 0 10.67.47l-10.2 10.2a1.61 1.61 0 0 0 0 2.28l14.8 14.8L9.76 33.27a1.612 1.612 0 0 0 .877 2.727z"/></svg>