<svg xmlns="http://www.w3.org/2000/svg" width="100" height="100" viewBox="0 0 100 100"><path d="M81.232 15.39H18.77a3.407 3.407 0 0 0-3.408 3.406v3.143a3.407 3.407 0 0 0 3.407 3.406H81.23a3.407 3.407 0 0 0 3.407-3.407v-3.144a3.407 3.407 0 0 0-3.408-3.407zM81.232 35.144H18.77a3.407 3.407 0 0 0-3.408 3.407v3.144A3.407 3.407 0 0 0 18.77 45.1H81.23a3.407 3.407 0 0 0 3.407-3.406V38.55a3.408 3.408 0 0 0-3.408-3.406zM81.232 54.9H18.77a3.407 3.407 0 0 0-3.408 3.406v3.143a3.407 3.407 0 0 0 3.407 3.406H81.23a3.407 3.407 0 0 0 3.407-3.407v-3.144A3.408 3.408 0 0 0 81.23 54.9zM81.232 74.654H18.77a3.407 3.407 0 0 0-3.408 3.407v3.144a3.407 3.407 0 0 0 3.407 3.407H81.23a3.407 3.407 0 0 0 3.407-3.406V78.06a3.408 3.408 0 0 0-3.408-3.406z"/></svg>