<svg xmlns="http://www.w3.org/2000/svg" width="100" height="100" viewBox="0 0 100 100"><path d="M5.128 67.194L.024 97.962c-.093.558.09 1.125.49 1.524v.003c.404.4.973.58 1.532.485L32.73 94.79a1.748 1.748 0 0 0 1.377-1.198c.2-.622.034-1.308-.43-1.77l-6-6 16.108-16.108a1.75 1.75 0 0 0 0-2.478l-11.1-11.102a1.752 1.752 0 0 0-2.48 0L14.098 72.242 8.096 66.24a1.752 1.752 0 0 0-2.968.954zM94.872 32.806l5.104-30.768a1.748 1.748 0 0 0-.49-1.524V.51c-.405-.398-.973-.58-1.532-.486L67.27 5.21a1.755 1.755 0 0 0-.947 2.97l6 5.997-16.108 16.11a1.753 1.753 0 0 0 0 2.48l11.102 11.1a1.752 1.752 0 0 0 2.48 0L85.902 27.76l6 6a1.76 1.76 0 0 0 1.776.43 1.757 1.757 0 0 0 1.192-1.384z"/></svg>