<svg xmlns="http://www.w3.org/2000/svg" width="100" height="100" viewBox="0 0 100 100"><path d="M39.17 88.427l5.104-30.768a1.746 1.746 0 0 0-.49-1.525v-.003c-.404-.4-.972-.58-1.532-.486l-30.685 5.186a1.748 1.748 0 0 0-1.375 1.196 1.748 1.748 0 0 0 .43 1.772l6 6L.514 85.906a1.752 1.752 0 0 0 0 2.48l11.1 11.1a1.752 1.752 0 0 0 2.48 0L30.2 83.38l6.003 6a1.76 1.76 0 0 0 1.774.43 1.75 1.75 0 0 0 1.194-1.383zM60.83 11.573L55.724 42.34a1.75 1.75 0 0 0 .49 1.525l.002.003c.403.4.972.58 1.53.486l30.685-5.187a1.75 1.75 0 0 0 1.376-1.196 1.748 1.748 0 0 0-.43-1.772l-6-6 16.108-16.106a1.752 1.752 0 0 0 0-2.48L88.386.515a1.752 1.752 0 0 0-2.48 0L69.8 16.62l-6.003-6a1.753 1.753 0 0 0-2.968.953z"/></svg>