<svg xmlns="http://www.w3.org/2000/svg" width="100" height="100" viewBox="0 0 100 100"><path d="M82.063 22.284h-.006a1.64 1.64 0 0 0-1.612-1.59v-.002h-3.36v60.414c0 .9-.72 1.627-1.617 1.644v.005l-50.906-.002a1.644 1.644 0 0 1-1.62-1.375v-3.602H70.35v-.003l.03.003c.91 0 1.647-.735 1.647-1.646l-.002-.012.002-62.202c0-.91-.736-1.647-1.646-1.646l-.03.003v-.004h-5.757V47.22a.782.782 0 0 1-1.36.53l-5.667-5.668h-.02a.677.677 0 0 0-.512-.24.677.677 0 0 0-.513.24h-.018l-5.71 5.71h-.008a.78.78 0 0 1-1.318-.572V12.27H19.583c-.91 0-1.646.736-1.646 1.646 0 .02.006.042.006.063V86.022c0 .02-.006.04-.006.06s.005.038.006.058v.077h.008c.07.845.77 1.51 1.633 1.51v.002h60.863v-.002a1.643 1.643 0 0 0 1.616-1.643v-63.8z"/></svg>