<svg xmlns="http://www.w3.org/2000/svg" width="100" height="100" viewBox="0 0 100 100"><path d="M71.782 64.06L57.807 50.084l14.01-14.01c.165-.142.315-.292.456-.456l.013-.014a4.212 4.212 0 0 0 1.027-2.743c0-1.307-.603-2.46-1.53-3.24L52.155 9.994c-.78-.978-1.965-1.617-3.312-1.617a4.25 4.25 0 0 0-4.25 4.25c0 .407.076.793.183 1.167v23.258L34.052 26.33a4.224 4.224 0 0 0-3.115-1.378 4.25 4.25 0 0 0-4.25 4.25c0 1.238.538 2.342 1.383 3.12l16.706 16.705v2.115L27.953 67.966l-.038.038-.032.032.003.003a4.232 4.232 0 0 0-1.2 2.948 4.25 4.25 0 0 0 4.25 4.25c1.29 0 2.43-.586 3.21-1.49l10.63-10.63v24.098c-.002.053-.016.102-.016.156s.014.103.016.156v.022h.002a4.24 4.24 0 0 0 4.232 4.072 4.22 4.22 0 0 0 3.156-1.428l.004.004 19.862-19.863.064-.064.19-.19-.018-.017a4.213 4.213 0 0 0 1.045-2.762c0-1.307-.603-2.46-1.53-3.24zm-8.71 3.262l-9.83 9.828V57.494l9.83 9.828zm-9.83-24.647V23.057l9.81 9.81-9.81 9.808z"/></svg>