<svg xmlns="http://www.w3.org/2000/svg" width="100" height="100" viewBox="0 0 100 100"><path d="M82.063 22.284h-.006a1.64 1.64 0 0 0-1.612-1.59v-.002h-3.36v60.414c0 .9-.72 1.627-1.617 1.644v.005l-50.906-.002a1.644 1.644 0 0 1-1.62-1.375v-3.602H70.35v-.003l.03.003c.91 0 1.647-.735 1.647-1.646l-.002-.012.002-62.202c0-.91-.736-1.647-1.646-1.646l-.03.003v-.004H19.582c-.91 0-1.646.736-1.646 1.646 0 .02.006.042.006.063V86.022c0 .02-.006.04-.006.06s.005.038.006.058v.077h.008c.07.845.77 1.51 1.633 1.51v.002h60.863v-.002a1.643 1.643 0 0 0 1.616-1.643v-63.8zm-59.147 1.588c0-.908.736-1.646 1.646-1.646h40.84c.91 0 1.646.738 1.646 1.646v12.363c0 .91-.738 1.646-1.647 1.646H24.563c-.91 0-1.646-.735-1.646-1.645V23.88v-.008z"/></svg>