<svg xmlns="http://www.w3.org/2000/svg" width="100" height="100" viewBox="0 0 100 100"><path d="M80.583 39.494H19.417c-.7 0-1.266.565-1.266 1.264v43.916c0 .698.568 1.264 1.267 1.264h61.165c.703 0 1.267-.566 1.267-1.264V40.758c0-.7-.565-1.264-1.267-1.264zM39.373 76.68c-2.11 0-4.443-.425-6.243-1.137a.632.632 0 0 1-.396-.674l.59-4.295a.624.624 0 0 1 .3-.456.64.64 0 0 1 .548-.05c1.98.747 3.643 1.053 5.744 1.053 2.202 0 3.736-1.04 3.736-2.528 0-1.847-.89-2.835-5.762-3.113a.63.63 0 0 1-.595-.63v-4.294c0-.332.255-.608.585-.632 4.195-.296 4.68-1.586 4.68-2.53 0-.64 0-1.71-2.84-1.71-1.52 0-3.132.415-4.792 1.227a.63.63 0 0 1-.904-.48l-.588-4.293a.634.634 0 0 1 .36-.66c1.932-.895 4.37-1.348 7.253-1.348 5.136 0 8.588 2.386 8.588 5.937 0 2.662-1.377 4.622-4.202 5.954 2.425.935 4.903 2.632 4.903 6.222 0 5.122-4.303 8.433-10.967 8.433zm26.718-1.024c0 .35-.283.632-.632.632H60.23a.632.632 0 0 1-.632-.632V58.434l-3.435 1.31a.628.628 0 0 1-.548-.048.618.618 0 0 1-.303-.457l-.585-4.295a.63.63 0 0 1 .346-.65l7.493-3.707a.655.655 0 0 1 .282-.065h2.61c.35 0 .634.283.634.633v24.5zM80.583 19.72h-6.52v3.05c0 3.236-1.844 6.69-7.03 6.69-5.184 0-7.03-3.454-7.03-6.69v-3.05H40.08v3.05c0 3.236-1.845 6.69-7.03 6.69-5.186 0-7.036-3.454-7.036-6.69v-3.05h-6.597c-.7 0-1.266.565-1.266 1.264v12.86c0 .7.568 1.265 1.267 1.265h61.165c.703 0 1.267-.567 1.267-1.267v-12.86c0-.698-.565-1.263-1.267-1.263z"/><path d="M33.05 25.376c2.095 0 2.946-.755 2.946-2.606v-6.1c0-1.853-.85-2.607-2.946-2.607-2.1 0-2.952.755-2.952 2.607v6.1c0 1.852.85 2.606 2.952 2.606zM67.033 25.376c2.095 0 2.946-.755 2.946-2.606v-6.1c0-1.853-.852-2.607-2.947-2.607-2.1 0-2.946.755-2.946 2.607v6.1c0 1.852.845 2.606 2.946 2.606z"/></svg>