<svg xmlns="http://www.w3.org/2000/svg" width="100" height="100" viewBox="0 0 100 100"><path d="M88.466 16.936a3.362 3.362 0 0 0-3.34-3.036H14.78v.01a3.357 3.357 0 0 0-3.246 3.026H11.5v56.342h.068a3.37 3.37 0 0 0 3.213 2.694v.01h11.566v6.743a3.373 3.373 0 0 0 6.173 1.883l8.627-8.628h43.98a3.373 3.373 0 0 0 3.306-2.703h.067v-56.34h-.034zm-17.492 40.24L58.28 51.17v5.653a2.434 2.434 0 0 1-2.428 2.426H34.374a2.434 2.434 0 0 1-2.427-2.425V33.39a2.433 2.433 0 0 1 2.427-2.425h21.478a2.434 2.434 0 0 1 2.428 2.425v5.503l12.694-5.948v24.23z"/></svg>