<svg xmlns="http://www.w3.org/2000/svg" width="100" height="100" viewBox="0 0 100 100"><path d="M63.185 55.07a1.73 1.73 0 0 1-1.73-1.73V36.445c0-.957.774-1.73 1.73-1.73h17.962v-17.78h-.034a3.362 3.362 0 0 0-3.34-3.036H7.43v.01a3.356 3.356 0 0 0-3.248 3.026h-.035v56.342h.068a3.37 3.37 0 0 0 3.214 2.694v.01h11.563v6.743a3.373 3.373 0 0 0 6.173 1.884l8.628-8.63h43.98a3.373 3.373 0 0 0 3.306-2.702h.068V55.07H63.185z"/><path d="M94.123 39.702h-25.95a1.73 1.73 0 0 0-1.73 1.73v6.92c0 .956.773 1.73 1.73 1.73h25.95a1.73 1.73 0 0 0 1.73-1.73v-6.92a1.73 1.73 0 0 0-1.73-1.73z"/></svg>