<svg xmlns="http://www.w3.org/2000/svg" width="100" height="100" viewBox="0 0 100 100"><path d="M87.97 43.045l-8.254-8.25a1.227 1.227 0 0 0-1.738 0l-22.583 22.58.045.045-.072-.02-3.09 11.534.008.002a1.21 1.21 0 0 0 1.67 1.486v.01l11.416-3.06-.007-.027.02.02L87.967 44.78a1.23 1.23 0 0 0 0-1.735zM56.034 66.697l1.836-6.846 5.013 5.013-6.848 1.834z"/><path d="M71.967 73.23h-7.484a1.23 1.23 0 0 0-1.23 1.23l.003.01v8.716H21.612V21.81h4.997v3.068c-.003.033-.01.063-.01.097 0 .998.81 1.814 1.813 1.814l.014-.002v.008h28.027a1.815 1.815 0 0 0 1.813-1.813c0-.015-.004-.03-.004-.044v-3.13h4.992v8.717l-.002.012a1.227 1.227 0 0 0 1.228 1.228h7.485a1.23 1.23 0 0 0 1.23-1.228V17.26h-.02c0-.05.015-.095.015-.145a5.245 5.245 0 0 0-5.24-5.245c-.04 0-.077.01-.117.012H53.276V8.478c0-.88-.714-1.593-1.593-1.595v-.008h-18.45v.006c-.015 0-.028-.003-.043-.003-.88 0-1.594.713-1.594 1.594l.003.03v3.38H16.914a5.248 5.248 0 0 0-5.242 5.242c0 .047.013.09.014.137h-.014v70.57h.003c0 .01-.003.02-.003.028a5.24 5.24 0 0 0 5.243 5.238c.078 0 .15-.02.23-.023v.02h50.5c.097.006.19.03.29.03a5.24 5.24 0 0 0 5.238-5.238c0-.02-.005-.036-.005-.055h.027V74.458a1.23 1.23 0 0 0-1.23-1.228z"/></svg>