<svg xmlns="http://www.w3.org/2000/svg" width="100" height="100" viewBox="0 0 100 100"><path d="M94.974 17.838a2.526 2.526 0 0 0-2.443-2.277v-.006H39.625a2.53 2.53 0 0 0-2.513 2.284h-.025v13.14h22.342a2.26 2.26 0 0 1 2.243 2.038h.023v29.232h11.01l6.487 6.487a2.537 2.537 0 0 0 4.644-1.415v-5.072h8.698v-.008a2.534 2.534 0 0 0 2.417-2.027H95V17.838h-.026z"/><path d="M54.44 35.964H7.204v.006a2.256 2.256 0 0 0-2.18 2.033H5v37.835h.046a2.264 2.264 0 0 0 2.158 1.81v.005h7.765v4.53a2.266 2.266 0 0 0 4.145 1.262l5.792-5.792H54.44c1.096 0 2.01-.78 2.22-1.815h.045V38.003h-.023a2.255 2.255 0 0 0-2.242-2.04z"/></svg>