<svg xmlns="http://www.w3.org/2000/svg" width="100" height="100" viewBox="0 0 100 100"><path d="M88.23 71.062h-7.263V23.96h-.05c.002-.07.02-.136.02-.207a4.773 4.773 0 0 0-4.772-4.772H28.99v-7.067a2.693 2.693 0 0 0-2.693-2.693h-4.57a2.692 2.692 0 0 0-2.694 2.693v7.068H11.77a2.693 2.693 0 0 0-2.694 2.694v4.57a2.692 2.692 0 0 0 2.693 2.694h7.263V76.04h.052c-.003.07-.02.136-.02.207a4.773 4.773 0 0 0 4.77 4.772H71.01v7.067a2.693 2.693 0 0 0 2.693 2.693h4.57a2.692 2.692 0 0 0 2.694-2.693V81.02h7.263a2.693 2.693 0 0 0 2.694-2.694v-4.57a2.693 2.693 0 0 0-2.693-2.694zm-59.24 0V28.938h42.02v42.125H28.99z"/></svg>