<svg xmlns="http://www.w3.org/2000/svg" width="100" height="100" viewBox="0 0 100 100"><path d="M80.76 17.26h-.018c0-.05.015-.095.015-.145a5.245 5.245 0 0 0-5.24-5.245c-.04 0-.077.01-.117.012H60.842V8.478c0-.88-.714-1.593-1.593-1.595v-.008H40.8v.006c-.015 0-.028-.003-.043-.003-.88 0-1.594.713-1.594 1.594l.003.03v3.38H24.48a5.248 5.248 0 0 0-5.24 5.242c0 .047.012.09.013.137h-.014v70.57h.002c0 .01-.003.02-.003.028a5.24 5.24 0 0 0 5.242 5.238c.078 0 .15-.02.23-.023v.02h50.5c.097.006.19.03.29.03a5.24 5.24 0 0 0 5.238-5.238c0-.02-.005-.036-.005-.055h.028V17.26zm-9.938 65.925H29.178V21.81h4.997v3.068c-.002.033-.01.063-.01.097 0 .998.81 1.814 1.814 1.814l.013-.002v.008H64.02a1.815 1.815 0 0 0 1.813-1.813c0-.015-.004-.03-.004-.044v-3.13h4.99v61.375z"/></svg>