<svg xmlns="http://www.w3.org/2000/svg" width="100" height="100" viewBox="0 0 100 100"><path fill="#231F20" d="M92.038 24.333l-8.62-8.622a1.615 1.615 0 0 0-2.282 0l-31.15 31.15-6.07-6.068c-.63-.63-1.65-.63-2.28 0l-8.623 8.622a1.61 1.61 0 0 0 0 2.282l15.782 15.778c.302.302.712.473 1.14.473.02 0 .038-.01.057-.01.016 0 .033.01.05.01a1.61 1.61 0 0 0 1.14-.474L92.04 26.616c.63-.632.63-1.653 0-2.283z"/><path d="M72.022 53.625v21.16H27.978V30.74h31.06l9.98-9.978H23.192v.007c-.023 0-.044-.008-.068-.008a5.118 5.118 0 0 0-5.113 5H18v54h.013A5.11 5.11 0 0 0 23 84.75v.012h54v-.013a5.11 5.11 0 0 0 4.987-4.988H82V43.647l-9.978 9.978z"/></svg>