<svg xmlns="http://www.w3.org/2000/svg" width="100" height="100" viewBox="0 0 100 100"><path d="M88.466 16.936a3.362 3.362 0 0 0-3.34-3.036H14.78v.01a3.356 3.356 0 0 0-3.246 3.026H11.5v56.342h.068a3.37 3.37 0 0 0 3.214 2.694v.01h11.564v6.743a3.373 3.373 0 0 0 6.173 1.882l8.626-8.627h43.98a3.373 3.373 0 0 0 3.306-2.703h.068v-56.34h-.034zM28.4 50.662c-3.056 0-5.788-2.405-5.788-6.632 0-4.878 2.667-9.234 6.7-12.095l.013.012c.1-.05.206-.085.324-.085a.71.71 0 0 1 .43.156l.007-.007 2.703 1.707-.016.015c.192.13.325.34.325.59a.72.72 0 0 1-.39.633v.002c-.014.008-.03.02-.045.028l-.012.007c-2.065 1.124-4.26 3.726-4.84 6.046.26-.13.78-.195 1.302-.195 2.47 0 4.42 1.885 4.42 4.68.002 2.798-2.34 5.14-5.136 5.14zm13.232 0c-3.055 0-5.787-2.405-5.787-6.632 0-4.878 2.667-9.234 6.7-12.095l.013.012c.1-.05.206-.085.324-.085a.71.71 0 0 1 .43.156l.008-.007 2.703 1.707-.016.015c.192.13.325.34.325.59a.72.72 0 0 1-.39.633l.002.002c-.015.008-.03.02-.046.028l-.012.007c-2.065 1.124-4.26 3.726-4.84 6.046.26-.13.78-.195 1.302-.195 2.47 0 4.42 1.885 4.42 4.68 0 2.798-2.34 5.14-5.136 5.14zm15.824 7.187l-.014-.013a.713.713 0 0 1-.324.085.71.71 0 0 1-.43-.156l-.008.007-2.703-1.706.016-.015a.713.713 0 0 1-.325-.59c0-.277.16-.51.39-.633l-.002-.003c.015-.008.03-.02.046-.028.004-.003.007-.006.012-.008 2.065-1.124 4.26-3.726 4.84-6.046-.26.13-.78.195-1.302.195-2.47 0-4.42-1.884-4.42-4.68 0-2.797 2.34-5.137 5.137-5.137 3.054 0 5.786 2.405 5.786 6.632 0 4.877-2.668 9.233-6.7 12.094zm13.233 0l-.015-.013a.713.713 0 0 1-.324.085.71.71 0 0 1-.43-.156l-.007.007-2.703-1.706.016-.015a.713.713 0 0 1-.325-.59c0-.277.162-.51.39-.633v-.003c.014-.008.03-.02.045-.028.004-.003.007-.006.012-.008 2.065-1.124 4.26-3.726 4.84-6.046-.26.13-.78.195-1.302.195-2.47 0-4.42-1.884-4.42-4.68 0-2.797 2.34-5.137 5.137-5.137 3.055 0 5.787 2.405 5.787 6.632-.002 4.877-2.67 9.233-6.7 12.094z"/></svg>