<svg xmlns="http://www.w3.org/2000/svg" width="100" height="100" viewBox="0 0 100 100"><g fill-rule="evenodd" clip-rule="evenodd"><path d="M84.01 79.998a3.044 3.044 0 0 0-3.042-3.043H19.033a3.044 3.044 0 0 0-3.042 3.043v3.87a3.04 3.04 0 0 0 3.043 3.043h61.935a3.04 3.04 0 0 0 3.042-3.04v-3.872zM24.62 38.433l-.018-.017-.002.002a3.24 3.24 0 0 0-2.118-.798 3.264 3.264 0 0 0-3.26 3.193h-.08V70.05h.103c.155 1.66 1.536 2.966 3.237 2.966.012 0 .024-.003.036-.004v.004H77.48v-.076c.014 0 .025.004.038.004 1.675 0 3.04-1.268 3.23-2.893h.036v-.374V41.42a3.267 3.267 0 0 0-3.194-3.945c-.776 0-1.48.282-2.04.733l-.01-.01-.09.092a3.17 3.17 0 0 0-.312.312l-6.88 6.88-15.853-15.85-.03.03A3.248 3.248 0 0 0 50 28.63c-.94 0-1.78.4-2.376 1.036l-.035-.035L31.7 45.517l-6.766-6.767a3.502 3.502 0 0 0-.317-.317zm48.353 8.394v.095h-.095l.095-.095z"/><circle cx="22.348" cy="27.13" r="6.042"/><circle cx="77.348" cy="27.13" r="6.042"/><circle cx="50.348" cy="19.13" r="6.042"/></g></svg>