<svg xmlns="http://www.w3.org/2000/svg" width="100" height="100" viewBox="0 0 100 100"><path d="M83.92 23.292a7.44 7.44 0 0 0-7.212-7.264v-.01H23.292v.007a7.443 7.443 0 0 0-7.267 7.267h-.01v53.416h.01a7.44 7.44 0 0 0 7.267 7.267v.008h53.416v-.01a7.44 7.44 0 0 0 7.267-7.266h.01V23.292h-.064zM32.99 73.676a7.035 7.035 0 1 1 0-14.07 7.035 7.035 0 0 1 0 14.07zm0-16.64a7.035 7.035 0 1 1 0-14.07 7.035 7.035 0 0 1 0 14.07zm0-16.966a7.035 7.035 0 1 1 0-14.07 7.035 7.035 0 0 1 0 14.07zm34.02 33.91a7.033 7.033 0 0 1-7.035-7.034 7.034 7.034 0 0 1 14.07 0 7.034 7.034 0 0 1-7.036 7.033zm0-16.945a7.035 7.035 0 1 1 0-14.07 7.035 7.035 0 0 1 0 14.07zm0-16.965a7.033 7.033 0 0 1-7.035-7.033 7.034 7.034 0 0 1 14.07 0 7.034 7.034 0 0 1-7.036 7.033z"/></svg>