<svg xmlns="http://www.w3.org/2000/svg" width="100" height="100" viewBox="0 0 100 100"><path d="M84.514 49.615H67.01a4.914 4.914 0 0 0-4.68 3.406A12.922 12.922 0 0 1 50 62.005a12.92 12.92 0 0 1-12.328-8.983 4.916 4.916 0 0 0-4.68-3.405H15.485c-2.716 0-4.92 2.2-4.92 4.92v28.053a4.92 4.92 0 0 0 4.92 4.917h69.028c2.72 0 4.92-2.203 4.92-4.917V54.534c0-2.72-2.2-4.92-4.92-4.92z"/><path d="M48.968 52.237c.247.346.65.553 1.076.553h.003c.428 0 .826-.207 1.076-.558L64.727 33.1a1.33 1.33 0 0 0 .096-1.375 1.32 1.32 0 0 0-1.177-.716h-6.4V13.82c0-.734-.592-1.325-1.322-1.325H44.078c-.732 0-1.323.59-1.323 1.326v17.19H36.35a1.323 1.323 0 0 0-1.075 2.09l13.693 19.137z"/></svg>