<svg xmlns="http://www.w3.org/2000/svg" width="100" height="100" viewBox="0 0 100 100"><path d="M15.194 59.995l69.732-.074v-.013a2.493 2.493 0 0 0 2.36-2.49c0-.72-.31-1.366-.8-1.822L51.833 21.02l-.004.004a2.484 2.484 0 0 0-1.902-.892c-.833 0-1.566.414-2.02 1.04L13.448 55.71a2.498 2.498 0 0 0 1.746 4.287zM87.308 77.253l-.01-9.803v-.05h-.005a2.534 2.534 0 0 0-2.534-2.485v-.006l-69.752.073v.042a2.53 2.53 0 0 0-2.293 2.516c0 .034.008.064.01.097l.01 9.477c-.006.074-.022.145-.022.22a2.528 2.528 0 0 0 2.31 2.51v.024l69.752-.074c1.4 0 2.535-1.138 2.534-2.54h-.002z"/></svg>