<svg xmlns="http://www.w3.org/2000/svg" width="100" height="100" viewBox="0 0 100 100"><path d="M84.448 47.672L67.712 30.936l-.116.116c-4.632-4.325-10.847-6.977-17.685-6.977-7.678 0-14.574 3.34-19.32 8.646L15.012 48.3l.012.012a2.66 2.66 0 0 0-.673 1.76 2.66 2.66 0 0 0 1.01 2.08l16.895 16.894.035-.035a25.828 25.828 0 0 0 17.62 6.914c7.67 0 14.56-3.333 19.305-8.627l.062.062 15.478-15.48a2.66 2.66 0 0 0 .886-1.978c0-.93-.475-1.75-1.196-2.23zM49.912 67.567c-9.702 0-17.567-7.865-17.567-17.567 0-9.7 7.865-17.566 17.567-17.566S67.48 40.3 67.48 50c0 9.702-7.866 17.567-17.568 17.567z"/><circle cx="49.99" cy="50.077" r="8.512"/></svg>