<svg xmlns="http://www.w3.org/2000/svg" width="100" height="100" viewBox="0 0 100 100"><g fill="#231F20"><path d="M77.74 10.79H4.36a2.52 2.52 0 0 0-2.52 2.52v73.38c0 1.39 1.13 2.52 2.52 2.52h.002c.002 0 0 0 0 0H77.74a2.52 2.52 0 0 0 2.522-2.52V13.31a2.52 2.52 0 0 0-2.52-2.52zM11.863 20.81h58.38v58.38h-58.38V20.81zM97.524 63.966h-2.882V56.23a.595.595 0 0 0-.595-.597h-5.333a.595.595 0 0 0-.595.596v7.735h-2.884a.598.598 0 0 0-.484.942l6.164 8.616a.594.594 0 0 0 .968-.002l6.124-8.614a.595.595 0 0 0-.486-.94zM85.276 36.035h2.882v7.737c0 .33.267.595.596.596h5.333c.33 0 .596-.267.595-.596v-7.737h2.883a.595.595 0 0 0 .484-.94l-6.165-8.616a.594.594 0 0 0-.483-.25.6.6 0 0 0-.486.25l-6.124 8.615a.596.596 0 0 0 .484.94z"/><circle cx="27.998" cy="31.993" r="4.955"/><path d="M37.38 38.28v-.024H19.628v.017a2.332 2.332 0 0 0-2.332 2.316h-.002v14.04h.023a2.083 2.083 0 1 0 4.166 0h.005V44.826h.006a.662.662 0 0 1 .66-.638c.358 0 .646.282.66.637h.007v25.701a2.436 2.436 0 0 0 4.875-.003v-12.94h.018a.675.675 0 0 1 1.35 0h.017v12.94a2.438 2.438 0 0 0 4.874 0V44.83a.666.666 0 0 1 1.33 0V54.63h.024a2.083 2.083 0 1 0 4.167 0h.004V40.59a2.33 2.33 0 0 0-2.1-2.31z"/><circle cx="53.331" cy="31.993" r="4.955"/><path d="M62.713 38.28v-.024H44.96v.017a2.332 2.332 0 0 0-2.33 2.316h-.003v14.04h.023a2.083 2.083 0 1 0 4.166 0h.005V44.826h.007a.662.662 0 0 1 .66-.638c.358 0 .646.282.66.637h.007v25.701a2.436 2.436 0 0 0 4.874-.003v-12.94h.018a.675.675 0 0 1 1.35 0h.017v12.94a2.438 2.438 0 0 0 4.874 0V44.83a.666.666 0 0 1 1.33 0V54.63h.024a2.083 2.083 0 1 0 4.167 0h.005V40.59a2.33 2.33 0 0 0-2.1-2.31z"/></g></svg>