<svg xmlns="http://www.w3.org/2000/svg" width="100" height="100" viewBox="0 0 100 100"><g fill="#231F20"><circle cx="49.244" cy="20.203" r="8.2"/><path d="M72.147 54.1l-5.47-20.413c-.003-.016-.01-.03-.013-.047l-.096-.36-.014.005c-.5-1.556-1.94-2.69-3.662-2.69-.013 0-.026.004-.04.004v-.072H37.11v.067c-1.722 0-3.163 1.134-3.662 2.69l-.014-.004-.096.36c-.004.016-.01.03-.013.048L27.853 54.1l.052.015c-.025.17-.052.337-.052.513a3.48 3.48 0 0 0 6.72 1.273l.025.006 4.013-14.974v.057h.032c.11-.493.53-.87 1.054-.87.526 0 .945.378 1.055.87h.034v.16c.002.026.014.047.014.072s-.013.046-.014.07v.154L34.36 65.424c-.104.21-.167.442-.184.688l-.014.05.008.003c0 .027-.008.053-.008.08a1.87 1.87 0 0 0 1.87 1.87h4.752v15.85a4.032 4.032 0 0 0 8.064 0v-15.85h2.293v15.85a4.033 4.033 0 0 0 8.066 0v-15.85h4.765a1.87 1.87 0 0 0 1.872-1.87c0-.027-.007-.053-.008-.08l.008-.002-.014-.05a1.87 1.87 0 0 0-.184-.69L59.24 41.52l.02-.006c-.026-.095-.058-.188-.058-.29 0-.61.493-1.103 1.102-1.103.518 0 .932.366 1.05.848l.042-.01 4.006 14.95.024-.006a3.48 3.48 0 0 0 6.72-1.273c0-.177-.026-.345-.05-.514l.05-.015z"/></g></svg>