<svg xmlns="http://www.w3.org/2000/svg" width="100" height="100" viewBox="0 0 100 100"><path d="M69.5 52.14a3.338 3.338 0 0 0-3.337 3.33v2.922h6.672v-2.92-.02-.012a3.34 3.34 0 0 0-3.336-3.3z"/><path d="M86.016 24.09H49.313c-1.98-2.37-4.013-4.864-4.54-5.623A3.182 3.182 0 0 0 41.9 16.66H27.366a3.18 3.18 0 0 0-2.478 1.184l-5.022 6.247h-5.885A5.492 5.492 0 0 0 8.5 29.576V77.86a5.49 5.49 0 0 0 5.483 5.48h72.032a5.49 5.49 0 0 0 5.484-5.48V29.574a5.49 5.49 0 0 0-5.484-5.484zM81.543 72.49c0 .497-.4.897-.898.897H58.67a.896.896 0 0 1-.897-.897v-13.2c0-.495.4-.896.897-.896h2.713v-2.92c0-4.474 3.64-8.115 8.115-8.115 4.476 0 8.116 3.64 8.116 8.114V58.393H80.643c.496 0 .898.4.898.897v13.198z"/></svg>