<svg xmlns="http://www.w3.org/2000/svg" width="100" height="100" viewBox="0 0 100 100"><path fill="#231F20" d="M68.507 55.658c10.22-10.22 10.22-26.793 0-37.016-10.222-10.22-26.793-10.22-37.015 0-10.222 10.223-10.222 26.795 0 37.016A26.054 26.054 0 0 0 44.9 62.823v8.09h-5.3a1.543 1.543 0 0 0-1.544 1.545v6.886c0 .852.693 1.543 1.545 1.544h5.3v6.592c0 .753.54 1.38 1.254 1.515v.03h7.175c.853 0 1.545-.692 1.545-1.545v-6.592H60.4c.852 0 1.543-.69 1.543-1.544v-6.886a1.54 1.54 0 0 0-1.544-1.545h-5.523v-8.048a26.047 26.047 0 0 0 13.63-7.207zM50 53.348c-8.946 0-16.2-7.25-16.198-16.197 0-8.945 7.252-16.198 16.2-16.198 8.945 0 16.198 7.252 16.197 16.198-.002 8.946-7.254 16.2-16.2 16.2z"/></svg>