<svg xmlns="http://www.w3.org/2000/svg" width="100" height="100" viewBox="0 0 100 100"><path d="M84.772 23.937c-.21 0-.41.043-.593.118v-.01a24.274 24.274 0 0 1-11.254 2.765c-7.52 0-14.244-3.4-18.724-8.747-4.048-3.82-9.5-6.167-15.504-6.167a22.52 22.52 0 0 0-15.052 5.745c-.842-1.773-2.635-3.008-4.73-3.008a5.248 5.248 0 0 0-5.247 5.247v62.973a5.248 5.248 0 0 0 10.495 0V54.497a24.288 24.288 0 0 1 10.984-2.614c7.53 0 14.26 3.41 18.74 8.767a22.517 22.517 0 0 0 15.487 6.146c6.49 0 12.328-2.747 16.45-7.128a1.55 1.55 0 0 0 .505-1.142v-33.03c0-.86-.7-1.56-1.56-1.56z"/></svg>