<svg xmlns="http://www.w3.org/2000/svg" width="100" height="100" viewBox="0 0 100 100"><path d="M86.016 24.09H49.313c-1.98-2.37-4.013-4.864-4.54-5.623a3.18 3.18 0 0 0-2.876-1.808h-14.53a3.18 3.18 0 0 0-2.48 1.184l-5.02 6.247h-5.884A5.492 5.492 0 0 0 8.5 29.576V77.86a5.49 5.49 0 0 0 5.483 5.48h72.032a5.49 5.49 0 0 0 5.484-5.48V29.574a5.49 5.49 0 0 0-5.484-5.484zm-4.473 39.196a.65.65 0 0 1-.195.465.65.65 0 0 1-.464.195h-8.78v8.78c0 .174-.07.34-.192.466a.666.666 0 0 1-.465.194h-6.15a.66.66 0 0 1-.658-.66v-8.778h-8.78a.656.656 0 0 1-.464-.194.654.654 0 0 1-.193-.464v-6.15c.002-.35.31-.658.66-.658h8.778v-8.78c0-.363.294-.658.66-.658h6.15c.363 0 .658.294.658.66v8.777h8.78c.364 0 .66.294.66.66l-.003 6.15z"/></svg>