<svg xmlns="http://www.w3.org/2000/svg" width="100" height="100" viewBox="0 0 100 100"><g fill="#231F20"><path d="M78.682 76.043l-2.95-1.574a.44.44 0 0 0-.597.18l-1.19 2.215a.452.452 0 0 0-.033.338.464.464 0 0 0 .215.263l2.95 1.57a.442.442 0 0 0 .598-.18l1.19-2.214a.44.44 0 0 0-.183-.6zM78.76 23.487l-2.983-1.747a.44.44 0 0 0-.604.155l-1.277 2.167a.44.44 0 0 0 .157.605l2.983 1.745c.07.04.147.06.224.06a.44.44 0 0 0 .38-.216l1.277-2.166a.436.436 0 0 0-.157-.603zM72.785 72.897l-3.344-1.81V21.965l1.63.957c.068.04.146.06.222.06.15 0 .296-.08.38-.218l1.277-2.166a.434.434 0 0 0 .048-.335.452.452 0 0 0-.206-.27l-1.216-.713-1.373-.945a1.58 1.58 0 0 0-1.82.228l-12.06 6.55-12.195-6.62c0-.002-.005 0-.005 0-.03-.016-.055-.036-.087-.05-.136-.063-.288-.06-.434-.09-.136-.027-.26-.08-.4-.08-.142 0-.265.053-.402.08-.143.03-.295.026-.426.09-.026.01-.046.03-.07.04-.007.008-.017.004-.023.01L30.09 25.11l-12.194-6.62a1.97 1.97 0 0 0-1.755-.05c-.553.26-.894.756-.894 1.293v53.523c0 .504.3.975.797 1.245l13.118 7.127c.004.002.01.002.015.005.03.015.054.03.083.045.254.12.54.18.83.18.286 0 .574-.06.83-.18.023-.01.043-.03.067-.043.008-.005.02-.002.027-.007l12.19-6.625 12.192 6.625.017.005c.027.015.05.03.08.045.256.12.544.18.83.18.29 0 .578-.06.832-.18.026-.01.042-.03.068-.043.008-.005.018-.002.028-.007l12.13-6.59.95.403.85.452c.066.037.138.05.207.05a.44.44 0 0 0 .39-.23l1.19-2.215a.446.446 0 0 0-.18-.6zm-42.74 5.694l-11.35-6.145V22.42l11.35 6.146V78.59zm26.236-.07l-13.077-7.087V21.44l13.078 7.118v49.96zM84.312 56.317h-2.52a.442.442 0 0 0-.44.442v5.254c0 .243.197.44.44.44h2.52a.44.44 0 0 0 .442-.44V56.76a.443.443 0 0 0-.442-.443zM84.312 77.338h-2.52a.438.438 0 0 0-.226.064l-.37.22a.463.463 0 0 0-.162.17l-1.19 2.218a.447.447 0 0 0 .184.6l1.556.828c.416.223.883.346 1.313.346.898 0 1.855-.538 1.855-2.05V77.78a.44.44 0 0 0-.44-.442zM83.464 26.242l-1.722-1.01a.442.442 0 0 0-.605.158l-1.276 2.164a.43.43 0 0 0-.046.334.427.427 0 0 0 .204.27l1.333.78v1.54c0 .243.2.44.44.44h2.522a.442.442 0 0 0 .442-.44V28.6c0-1.57-1.235-2.325-1.29-2.358zM84.312 35.293h-2.52c-.243 0-.44.2-.44.443v5.256c0 .244.197.442.44.442h2.52a.442.442 0 0 0 .442-.442v-5.256a.444.444 0 0 0-.442-.443zM84.312 66.83h-2.52a.44.44 0 0 0-.44.44v5.257c0 .244.197.442.44.442h2.52a.442.442 0 0 0 .442-.443V67.27a.442.442 0 0 0-.442-.44zM84.312 45.805h-2.52a.442.442 0 0 0-.44.442v5.255c0 .243.197.442.44.442h2.52c.244 0 .442-.2.442-.442v-5.255a.443.443 0 0 0-.442-.442z"/></g></svg>