<svg xmlns="http://www.w3.org/2000/svg" width="100" height="100" viewBox="0 0 100 100"><path d="M29.365 27.367h6.146v-5.15h28.777v5.258h6.145V18.43h-.002a2.487 2.487 0 0 0-2.477-2.466h-36.11-.004a2.488 2.488 0 0 0-2.488 2.488c0 .045.01.086.013.13v8.785zM24.772 84.037h50.436v-51.2H24.772v51.2zm9.985-29.186a.79.79 0 0 1 .768-.767H45.76V43.85c0-.425.344-.77.768-.77h7.17c.424 0 .768.345.768.77v10.234h10.236c.424 0 .768.344.768.768v7.17a.766.766 0 0 1-.768.768H54.466v10.236a.767.767 0 0 1-.768.768h-7.17a.767.767 0 0 1-.767-.768V62.79H35.526a.767.767 0 0 1-.768-.77v-7.17zM13.835 32.84a3.996 3.996 0 0 0-3.998 3.995c0 .053.013.102.016.154v42.94c0 .034-.01.066-.01.1a4 4 0 0 0 3.993 4v.007h5.96v-51.2l-5.96.002zM90.16 80.006V36.814h-.02a4 4 0 0 0-3.994-3.977h-5.96v51.2h5.944v-.004c.012 0 .023.003.035.003a3.997 3.997 0 0 0 3.998-3.998c0-.01-.003-.02-.003-.032z"/></svg>