<svg xmlns="http://www.w3.org/2000/svg" width="100" height="100" viewBox="0 0 100 100"><path d="M85.088 80.27c2.715 0 4.912-2.2 4.912-4.916v-50.71a4.912 4.912 0 0 0-4.912-4.916H14.912A4.913 4.913 0 0 0 10 24.645v50.71a4.912 4.912 0 0 0 4.912 4.916h70.176zm-4.913-9.827h-60.35V29.556h60.35v40.887z"/><path d="M41.564 65.897a3.52 3.52 0 0 1-2.48-1.03l-4.897-4.896-5.96 4.933a3.507 3.507 0 0 1-4.942-.466 3.51 3.51 0 0 1 .466-4.94l8.425-6.97a3.505 3.505 0 0 1 4.72.223l4.07 4.075 8.98-13.99a3.473 3.473 0 0 1 3.18-1.6c1.273.08 2.4.845 2.946 2l5.3 11.207L71.602 36.45a3.518 3.518 0 0 1 4.787-1.318 3.517 3.517 0 0 1 1.314 4.79l-13.57 23.862a3.537 3.537 0 0 1-3.184 1.77 3.498 3.498 0 0 1-3.04-2.01l-5.48-11.59-7.914 12.326a3.512 3.512 0 0 1-2.952 1.617z"/></svg>