<svg xmlns="http://www.w3.org/2000/svg" width="100" height="100" viewBox="0 0 100 100"><path d="M86.304 40.985H13.696c-.836 0-1.513.677-1.513 1.513v15.127c0 .836.677 1.513 1.513 1.513h72.608c.836 0 1.513-.677 1.513-1.513V42.497c0-.835-.677-1.512-1.513-1.512zM56.26 17.848v-.053H13.697c-.836 0-1.513.677-1.513 1.513v15.127c0 .836.677 1.513 1.513 1.513H56.26v-.053a1.51 1.51 0 0 0 1.136-1.46V19.308a1.51 1.51 0 0 0-1.135-1.46zM65.883 64.053H13.696c-.836 0-1.513.677-1.513 1.513v15.127c0 .836.677 1.513 1.513 1.513h52.187c.836 0 1.513-.677 1.513-1.513V65.566c0-.836-.677-1.513-1.513-1.513z"/></svg>