<svg xmlns="http://www.w3.org/2000/svg" width="100" height="100" viewBox="0 0 100 100"><path d="M81.232 15.138H18.77a3.407 3.407 0 0 0-3.408 3.407v3.143a3.407 3.407 0 0 0 3.407 3.407H81.23a3.407 3.407 0 0 0 3.407-3.407v-3.143a3.407 3.407 0 0 0-3.408-3.407zM81.232 74.905H18.77a3.407 3.407 0 0 0-3.408 3.407v3.143a3.407 3.407 0 0 0 3.407 3.407H81.23a3.407 3.407 0 0 0 3.407-3.407v-3.143a3.408 3.408 0 0 0-3.408-3.407zM84.64 58.39a3.407 3.407 0 0 0-3.408-3.407h-38.82a3.407 3.407 0 0 0-3.407 3.407v3.143a3.406 3.406 0 0 0 3.407 3.406h38.82a3.407 3.407 0 0 0 3.407-3.407V58.39zM84.64 38.577a3.407 3.407 0 0 0-3.408-3.407h-38.82a3.407 3.407 0 0 0-3.407 3.407v3.143a3.406 3.406 0 0 0 3.407 3.406h38.82a3.407 3.407 0 0 0 3.407-3.406v-3.142zM15.93 57.847c.16 0 .302-.066.406-.172L28.763 50.5l-.014-.024a.56.56 0 0 0 .288-.484c0-.232-.14-.43-.34-.52l.006-.01-12.376-7.145a.567.567 0 0 0-.963.39h-.003v14.572c0 .313.254.567.568.567z"/></svg>