<svg xmlns="http://www.w3.org/2000/svg" width="100" height="100" viewBox="0 0 100 100"><path d="M93.48 44.925a1.88 1.88 0 0 0-1.88-1.71H52.127c-2.6-9.967-11.654-17.353-22.426-17.353C16.907 25.862 6.5 36.27 6.5 49.064c0 12.798 10.407 23.202 23.202 23.202 11.445 0 20.953-8.332 22.84-19.242h8.79v12.518h.014c.072.98.884 1.757 1.886 1.757.026 0 .05-.007.075-.008v.01h6.1V67.3a1.89 1.89 0 0 0 1.886-1.758h.016V53.024h4.978V72.378h.015a1.898 1.898 0 0 0 1.887 1.76l.02-.002h6.113l.02.002a1.9 1.9 0 0 0 1.888-1.76h.016V53.024H91.6v-.002a1.903 1.903 0 0 0 1.9-1.9v-6.198h-.02zM29.703 62.532c-7.338 0-13.308-5.974-13.308-13.31 0-7.34 5.97-13.312 13.308-13.312 7.337 0 13.304 5.973 13.304 13.31 0 7.34-5.967 13.312-13.304 13.312z"/></svg>