<svg xmlns="http://www.w3.org/2000/svg" width="100" height="100" viewBox="0 0 100 100"><path d="M83.73 23.57a1.514 1.514 0 0 0-2.394-1.223l-5.944 4.262-.468.335c-6.405-6.39-15.196-10.39-24.938-10.39-13.284 0-24.878 7.355-30.94 18.202l.023.013a2.54 2.54 0 0 0 1.027 3.272l8.136 4.697a2.546 2.546 0 0 0 3.48-.933c.006-.01.01-.023.015-.034 3.59-6.404 10.438-10.747 18.29-10.747 4.878 0 9.35 1.696 12.913 4.5l-1 .72-5.948 4.26a1.51 1.51 0 0 0 .397 2.656l25.446 8.67a1.51 1.51 0 0 0 1.994-1.433l-.09-26.83zM79.904 61.958h-.002l-8.136-4.698a2.546 2.546 0 0 0-3.48.932c-.006.01-.01.023-.015.034-3.59 6.404-10.437 10.747-18.288 10.747-4.88 0-9.352-1.696-12.914-4.5l1-.72 5.95-4.26a1.51 1.51 0 0 0-.398-2.656l-25.447-8.67A1.51 1.51 0 0 0 16.18 49.6l.092 26.83a1.514 1.514 0 0 0 2.394 1.222l5.944-4.262.468-.336c6.405 6.39 15.196 10.39 24.938 10.39 13.284 0 24.878-7.355 30.94-18.202l-.024-.012a2.54 2.54 0 0 0-1.026-3.272z"/></svg>