<svg xmlns="http://www.w3.org/2000/svg" width="100" height="100" viewBox="0 0 100 100"><g fill="#231F20"><path d="M14.022 67.7H85.98a4.978 4.978 0 0 0 4.975-4.978V18.628c0-2.75-2.23-4.976-4.976-4.976H14.02a4.976 4.976 0 0 0-4.976 4.976v44.094a4.976 4.976 0 0 0 4.976 4.977zm4.976-44.096h62.005v34.142H18.998V23.604zM95.325 72.686H4.675A2.294 2.294 0 0 0 2.38 74.98v5.555c0 .58.22 1.135.61 1.56l3.25 3.517a2.304 2.304 0 0 0 1.684.735H91.84c.61 0 1.197-.245 1.63-.68l3.485-3.52a2.3 2.3 0 0 0 .664-1.613V74.98a2.295 2.295 0 0 0-2.295-2.294zm-36.656 7.97c0 .28-.186.506-.416.506H41.746c-.23 0-.415-.227-.415-.507V78.39c0-.28.186-.503.416-.503h16.508c.23 0 .415.224.415.504v2.265z"/></g></svg>