<svg xmlns="http://www.w3.org/2000/svg" width="100" height="100" viewBox="0 0 100 100"><path d="M78.663 21.338c-7.552-7.552-19.648-7.79-27.486-.713l-.02-.02L41.06 30.704a19.887 19.887 0 0 0-4.187 6.176 19.83 19.83 0 0 0-5.42 3.467l-.018-.02-10.097 10.098c-7.797 7.797-7.797 20.44 0 28.237 7.797 7.798 20.44 7.798 28.237 0l10.098-10.098-.02-.02a19.825 19.825 0 0 0 3.468-5.418 19.887 19.887 0 0 0 6.177-4.187l10.098-10.1-.02-.018c7.077-7.837 6.84-19.933-.712-27.484zM42.76 71.488c-3.935 3.935-10.314 3.935-14.248 0-3.935-3.935-3.935-10.314 0-14.248l7.368-7.368a19.847 19.847 0 0 0 5.18 9.068 19.85 19.85 0 0 0 9.067 5.18l-7.366 7.367zm5.474-19.722a10.024 10.024 0 0 1-2.92-6.452 10.027 10.027 0 0 1 6.453 2.92 10.02 10.02 0 0 1 2.92 6.45 10.03 10.03 0 0 1-6.453-2.918zM72.11 42.14l-.62.618h-.002l-7.37 7.37a19.845 19.845 0 0 0-5.178-9.068 19.85 19.85 0 0 0-9.07-5.18l7.37-7.37h.002l.62-.62.028.028c3.96-3.33 9.874-3.134 13.6.59s3.92 9.643.59 13.6l.03.03z"/></svg>