<svg xmlns="http://www.w3.org/2000/svg" width="100" height="100" viewBox="0 0 100 100"><path d="M80.302 18.915l.042-.042-.008-.008c.523-.57.518-1.45-.033-2.003L78.25 14.81a1.447 1.447 0 0 0-2.003-.034l-.01-.01-8.84 8.844a1.452 1.452 0 0 0 0 2.053l2.052 2.054a1.452 1.452 0 0 0 2.053 0l8.8-8.802zM48.548 19.274h2.903c.783 0 1.416-.62 1.447-1.393h.006V5.38c0-.802-.65-1.452-1.452-1.452v-.002H48.55c-.802 0-1.452.65-1.452 1.453V17.88h.006a1.45 1.45 0 0 0 1.446 1.394zM91.613 39.997c0-.783-.62-1.415-1.393-1.446v-.005H77.716a1.45 1.45 0 0 0-1.452 1.452V42.9c0 .803.65 1.453 1.452 1.453H90.22v-.006a1.45 1.45 0 0 0 1.393-1.447v-2.903zM50 24.2c-11.756 0-21.285 9.53-21.285 21.286a21.16 21.16 0 0 0 3.968 12.346h-.008c3.174 4.952 5.157 11.512 5.303 18.74.255.418.71.702 1.237.702.056 0 .11-.01.163-.017v.017H60.55v-.017c.054.006.107.017.162.017a1.45 1.45 0 0 0 1.303-.822c.175-7.584 2.37-14.43 5.843-19.44 2.154-3.323 3.427-7.27 3.427-11.525C71.285 33.73 61.755 24.2 50 24.2zM60.712 89.788c-.056 0-.108.01-.162.017v-.017H39.378v.017c-.054-.006-.107-.017-.163-.017-.8 0-1.452.65-1.452 1.452v3.384c0 .802.65 1.452 1.452 1.452.056 0 .11-.01.163-.017v.016H60.55v-.016c.054.006.107.016.162.016.802 0 1.452-.65 1.452-1.452V91.24a1.45 1.45 0 0 0-1.452-1.452zM60.712 80.348c-.056 0-.108.01-.162.017v-.017H39.378v.017c-.054-.006-.107-.017-.163-.017a1.45 1.45 0 0 0-1.447 1.403l-.005.058v3.376c0 .802.65 1.452 1.452 1.452.056 0 .11-.01.163-.017v.016H60.55v-.016c.054.006.107.017.162.017.802 0 1.452-.65 1.452-1.452V81.8a1.45 1.45 0 0 0-1.452-1.452zM22.344 39.685v-.006H9.84c-.803 0-1.453.65-1.453 1.45v2.904c0 .8.65 1.45 1.452 1.45h12.504v-.004a1.45 1.45 0 0 0 1.393-1.445V41.13c0-.78-.62-1.413-1.393-1.445zM20.2 18.415l8.84 8.843.01-.01c.57.524 1.45.52 2.002-.032l2.054-2.054a1.446 1.446 0 0 0 .033-2.003l.008-.01-8.843-8.842a1.453 1.453 0 0 0-2.053 0L20.2 16.36a1.453 1.453 0 0 0 0 2.055z"/></svg>