<svg xmlns="http://www.w3.org/2000/svg" width="100" height="100" viewBox="0 0 100 100"><path d="M17.563 30.277h.012a2.268 2.268 0 0 0 2.246 2.267v.002h60.36a2.27 2.27 0 0 0 2.26-2.27h.01V19.82a2.27 2.27 0 0 0-2.27-2.265H19.82a2.27 2.27 0 0 0-2.268 2.27c0 .038.01.075.012.114v10.34zM80.18 42.504H19.82a2.27 2.27 0 0 0-2.268 2.27c0 .038.01.075.012.114v10.34h.012a2.268 2.268 0 0 0 2.246 2.267v.002h60.36a2.27 2.27 0 0 0 2.258-2.27h.01V44.77a2.272 2.272 0 0 0-2.27-2.266zM80.18 67.454H19.82a2.27 2.27 0 0 0-2.268 2.27c0 .038.01.075.012.114v10.34h.012a2.268 2.268 0 0 0 2.246 2.267v.002h60.36a2.27 2.27 0 0 0 2.258-2.27h.01v-10.46a2.272 2.272 0 0 0-2.27-2.263z"/></svg>