<svg xmlns="http://www.w3.org/2000/svg" width="100" height="100" viewBox="0 0 100 100"><path d="M80.182 67.457h-35.41a2.27 2.27 0 0 0-2.268 2.268c0 .042.01.08.012.12V80.18h.01a2.268 2.268 0 0 0 2.255 2.268h35.4a2.268 2.268 0 0 0 2.255-2.27V69.826c.002-.034.01-.067.01-.1a2.267 2.267 0 0 0-2.263-2.268zM30.278 67.454H19.823a2.27 2.27 0 0 0-2.27 2.27v10.453a2.27 2.27 0 0 0 2.268 2.27H30.277a2.27 2.27 0 0 0 2.27-2.27V69.723a2.267 2.267 0 0 0-2.268-2.27zM80.182 42.467h-35.41a2.27 2.27 0 0 0-2.268 2.268c0 .042.01.08.012.12V55.19h.01a2.268 2.268 0 0 0 2.255 2.268h35.4a2.268 2.268 0 0 0 2.255-2.27V44.836c.002-.034.01-.067.01-.1a2.267 2.267 0 0 0-2.263-2.268zM30.278 42.464H19.823a2.27 2.27 0 0 0-2.27 2.27v10.453a2.27 2.27 0 0 0 2.268 2.27H30.277a2.27 2.27 0 0 0 2.27-2.27V44.733a2.267 2.267 0 0 0-2.268-2.27zM42.516 30.276h.01a2.268 2.268 0 0 0 2.255 2.268h35.4a2.268 2.268 0 0 0 2.255-2.27V19.922c.002-.033.01-.066.01-.1a2.27 2.27 0 0 0-2.264-2.268H44.773a2.27 2.27 0 0 0-2.27 2.268c0 .042.01.08.013.12v10.336zM30.278 17.55H19.823a2.27 2.27 0 0 0-2.27 2.27v10.454a2.27 2.27 0 0 0 2.268 2.27H30.277a2.27 2.27 0 0 0 2.27-2.27V19.82a2.266 2.266 0 0 0-2.268-2.27z"/></svg>