<svg xmlns="http://www.w3.org/2000/svg" width="100" height="100" viewBox="0 0 100 100"><path d="M88.72 20.13H26.26a3.407 3.407 0 0 0-3.407 3.407v3.143a3.407 3.407 0 0 0 3.408 3.407H88.72a3.407 3.407 0 0 0 3.408-3.407v-3.143a3.407 3.407 0 0 0-3.407-3.407zM88.72 45.022H26.26a3.407 3.407 0 0 0-3.407 3.407v3.142a3.407 3.407 0 0 0 3.408 3.407H88.72a3.407 3.407 0 0 0 3.408-3.408V48.43a3.407 3.407 0 0 0-3.407-3.408zM88.72 69.913H26.26a3.407 3.407 0 0 0-3.407 3.407v3.143a3.407 3.407 0 0 0 3.408 3.407H88.72a3.407 3.407 0 0 0 3.408-3.407V73.32a3.408 3.408 0 0 0-3.407-3.407z"/><circle cx="12.856" cy="25.108" r="4.984"/><circle cx="12.856" cy="49.002" r="4.984"/><circle cx="12.856" cy="74.891" r="4.984"/></svg>