<svg xmlns="http://www.w3.org/2000/svg" width="100" height="100" viewBox="0 0 100 100"><path d="M91.967 7.96c0-.015.005-.03.005-.046 0-1.51-1.223-2.73-2.73-2.733h-.002-49.68v.012L8.03 36.722H8.03v55.364h.003a2.735 2.735 0 0 0 2.735 2.732h78.48a2.73 2.73 0 0 0 2.662-2.15h.06v-.536c0-.015.004-.03.004-.044s-.003-.03-.003-.044V7.96zM67.64 15.14h14.37v24.597L63.897 21.62l3.742-6.482zM39.57 39.453a2.732 2.732 0 0 0 2.722-2.73V15.138H61.88l-27.17 47.06-16.725-16.725v-6.02H39.57zm-21.585 45.41V52.526L32.128 66.67 21.626 84.862h-3.64zm9.4 0l33.93-58.77L82.01 46.79V84.86H27.386z"/><path d="M62.03 45.576c-6.645 0-12.026 5.387-12.026 12.027 0 2.66.873 5.11 2.334 7.1l7.76 13.44c.046.093.096.185.156.27l.016.027.004-.002a2.16 2.16 0 0 0 3.405.132l.02.01.074-.128a2.25 2.25 0 0 0 .287-.497l7.61-13.178a11.962 11.962 0 0 0 2.39-7.175c-.004-6.64-5.385-12.026-12.03-12.026zM61.91 63.7c-3.273 0-5.925-2.65-5.925-5.925a5.926 5.926 0 0 1 11.852 0A5.924 5.924 0 0 1 61.91 63.7z"/></svg>