<svg xmlns="http://www.w3.org/2000/svg" width="100" height="100" viewBox="0 0 100 100"><path fill="#231F20" d="M83.417 18.33v-.006c0-.853-.69-1.544-1.54-1.545v-.017h-20.8v.017a1.544 1.544 0 0 0-1.53 1.543v6.87c0 .848.685 1.535 1.53 1.543h5.152l-8.714 8.714a26.05 26.05 0 0 0-14.76-4.56C28.3 30.89 16.58 42.608 16.58 57.063S28.3 83.237 42.755 83.237c14.455 0 26.173-11.72 26.173-26.174 0-5.373-1.62-10.366-4.398-14.52l8.91-8.912v5.474c0 .853.692 1.544 1.545 1.544h6.887c.852 0 1.544-.69 1.544-1.544V18.33zM42.755 73.26c-8.946 0-16.198-7.252-16.198-16.2 0-8.945 7.252-16.198 16.198-16.198s16.2 7.253 16.2 16.2c0 8.946-7.254 16.198-16.2 16.198z"/></svg>