<svg xmlns="http://www.w3.org/2000/svg" width="100" height="100" viewBox="0 0 100 100"><g fill="#231F20"><path d="M85.944 20.19H14.056a2.56 2.56 0 0 0-2.556 2.556v5.144c0 .237.257.51.467.62L49.753 50.09a.63.63 0 0 0 .318.083c.113 0 .226-.03.325-.088L87.04 28.53c.205-.115.75-.42.956-.56.248-.168.504-.32.504-.624v-4.6a2.56 2.56 0 0 0-2.556-2.557zM88.18 35.646a.644.644 0 0 0-.644.004L66.8 47.85a.637.637 0 0 0-.146.986l20.74 22.357c.123.133.29.204.467.204a.64.64 0 0 0 .64-.64V36.202c0-.23-.12-.44-.32-.554zM60.823 51.948a.636.636 0 0 0-.79-.118l-8.313 4.89a3.243 3.243 0 0 1-3.208.022l-7.315-4.18a.64.64 0 0 0-.75.087l-27.78 25.765a.64.64 0 0 0 .115 1.02c.432.254.85.375 1.273.375h71.153c.255 0 .485-.15.585-.385a.635.635 0 0 0-.118-.69L60.823 51.95zM34.334 49.6a.64.64 0 0 0-.115-1.022L12.452 36.146a.638.638 0 0 0-.953.556v32.62a.637.637 0 0 0 1.073.468l21.76-20.19z"/></g></svg>