<svg xmlns="http://www.w3.org/2000/svg" width="100" height="100" viewBox="0 0 100 100"><g fill="#231F20"><circle cx="49.354" cy="19.938" r="8.272"/><path d="M65.016 30.435v-.04H35.38v.027a3.895 3.895 0 0 0-3.894 3.867h-.003v23.438h.04a3.477 3.477 0 1 0 6.954 0h.007V41.365h.01a1.104 1.104 0 0 1 1.1-1.064c.598 0 1.078.474 1.103 1.065h.01V84.27a4.067 4.067 0 0 0 8.135-.005V62.66h.03a1.127 1.127 0 0 1 2.253 0h.03v21.605a4.07 4.07 0 0 0 8.136 0V41.367a1.11 1.11 0 0 1 2.223 0V57.728h.038a3.478 3.478 0 1 0 6.956 0h.008V34.29c.002-2.014-1.535-3.652-3.498-3.853z"/></g></svg>