<svg xmlns="http://www.w3.org/2000/svg" width="100" height="100" viewBox="0 0 100 100"><path fill="#231F20" d="M50 12.5c-20.712 0-37.5 16.793-37.5 37.502C12.5 70.712 29.288 87.5 50 87.5s37.5-16.788 37.5-37.498C87.5 29.292 70.712 12.5 50 12.5zm0 65.06c-15.2 0-27.56-12.36-27.56-27.558a27.437 27.437 0 0 1 6.4-17.636L41.643 45.17H36.81v.008a.67.67 0 0 0-.185.042l-6.043-3.49-.005.01a1.402 1.402 0 0 0-.648-.165 1.418 1.418 0 0 0-.766 2.61l-.01.017 6.124 3.535c-.237 1.03-.378 2.294-.378 3.667 0 2.898.625 5.328 1.47 6.025l-3.455 5.98a1.916 1.916 0 0 0-.413 1.18c0 1.07.866 1.936 1.935 1.936.626 0 1.176-.302 1.53-.762l.03.018 4.038-6.992 4.037 6.992.032-.02c.354.462.904.764 1.53.764 1.07 0 1.936-.866 1.936-1.935 0-.447-.16-.854-.415-1.183l-2.61-4.518a77.618 77.618 0 0 0 8.606.01l-2.604 4.507a1.914 1.914 0 0 0-.414 1.183c0 1.07.866 1.935 1.935 1.935.625 0 1.175-.302 1.53-.763l.03.02 3.158-5.468 4.167 4.167.75 1.3.032-.017c.296.386.73.654 1.232.732l4.664 4.665A27.427 27.427 0 0 1 50 77.56zm21.16-9.925l-9.304-9.305-.46-.795c.92-.518 1.62-3.062 1.62-6.13 0-.688-.036-1.348-.1-1.966l1.514-1.516h5.44v-.015l1.198-1.197-.006-.005a1.37 1.37 0 0 0-.144-2.106l-2.15-2.15v-2.24c0-.84-.484-1.562-1.182-1.922l-2.79-1.61-.006.013a1.674 1.674 0 0 0-.118-.064l-1.906-3.302-3.41 5.91h.198l-5.933 5.933h-4.925l-16.33-16.33A27.426 27.426 0 0 1 50 22.44c15.197 0 27.56 12.368 27.56 27.563 0 6.7-2.407 12.85-6.4 17.632z"/></svg>