<svg xmlns="http://www.w3.org/2000/svg" width="100" height="100" viewBox="0 0 100 100"><path d="M88.765 77.29V22.57v-.004V22.327h-.024a2.53 2.53 0 0 0-2.512-2.296c-.03 0-.058.008-.087.01h-4.568c-.07-.007-.14-.022-.213-.022a2.538 2.538 0 0 0-2.538 2.537c0 .117.02.23.035.343v23.14l-33.34-19.25a1.715 1.715 0 0 0-2.92 1.172h-.008v15.25L14.148 26.788a1.715 1.715 0 0 0-2.92 1.172h-.004v44.03a1.718 1.718 0 0 0 2.948 1.198L42.59 56.78v15.212a1.718 1.718 0 0 0 2.948 1.197l33.32-19.238v23.382h.012c-.002.04-.012.075-.012.114 0 1.4 1.134 2.533 2.532 2.536h4.852v-.024c1.4 0 2.537-1.136 2.537-2.537-.002-.046-.013-.088-.015-.132z"/></svg>