<svg xmlns="http://www.w3.org/2000/svg" width="100" height="100" viewBox="0 0 100 100"><path d="M88.286 67.965c-.022-.038-.052-.07-.076-.105h.002l-26.905-46.6-.015.008a2.08 2.08 0 0 0-.93-.8l.04-.023-7.987-4.612 8.87 15.365 20.18 34.95h-.003c.024.036.054.067.076.105a2.09 2.09 0 0 1-.765 2.855l.014.025-29.86 17.24 1.292 2.24c.025.054.043.11.074.165a2.085 2.085 0 0 0 2.772.8l.005.01 32.466-18.744-.014-.025a2.09 2.09 0 0 0 .764-2.855z"/><path d="M73.88 67.143a2.09 2.09 0 0 0 .765-2.855c-.022-.038-.052-.07-.076-.105l-26.904-46.6-.015.008a2.08 2.08 0 0 0-.928-.8l.038-.022-11.01-6.357v.045a2.082 2.082 0 0 0-1.846-.107l-.012-.02-.206.118c-.004.003-.01.003-.013.006-.004.003-.007.006-.012.008L12.48 22.69a2.078 2.078 0 0 0-1.037 1.764l-.006-.004v12.714l.02-.012c-.046.427.03.872.262 1.273.014.024.032.042.047.065l26.815 46.446c.026.055.044.112.075.166a2.085 2.085 0 0 0 2.772.8l.005.01 32.465-18.744-.015-.025zm-44.335-39.62a3.865 3.865 0 1 1 1.415-5.28 3.862 3.862 0 0 1-1.415 5.28z"/></svg>