<svg xmlns="http://www.w3.org/2000/svg" width="100" height="100" viewBox="0 0 100 100"><path d="M89.307 12.5h-.005V8.48a1.73 1.73 0 0 0-1.73-1.73h-32.87L28.75 32.7v5.237h.014c.073.888.81 1.588 1.716 1.588h6.49c.907 0 1.642-.7 1.716-1.588h.02V36.16h17.724a1.73 1.73 0 0 0 1.73-1.73V16.707H79.35v66.587H38.708v-3.012H38.7a1.73 1.73 0 0 0-1.73-1.728h-6.49a1.73 1.73 0 0 0-1.73 1.728V91.52c0 .957.775 1.73 1.73 1.73H87.57a1.73 1.73 0 0 0 1.73-1.73v-2.447h.005l.002-76.573z"/><path d="M49.6 59.04c0-8.847-7.17-16.02-16.02-16.02s-16.02 7.173-16.02 16.02c0 2.99.834 5.78 2.26 8.175l-7.815 7.815.03.03a4.38 4.38 0 0 0-1.343 3.195c0 2.463 1.962 4.39 4.423 4.39 1.257 0 2.38-.506 3.18-1.324l.023.023 8.024-8.024a15.933 15.933 0 0 0 7.238 1.74c8.85 0 16.02-7.173 16.02-16.02zm-25.318 0a9.298 9.298 0 0 1 9.3-9.3 9.297 9.297 0 0 1 9.297 9.3c0 5.135-4.162 9.298-9.3 9.298a9.297 9.297 0 0 1-9.298-9.3z"/></svg>