<svg xmlns="http://www.w3.org/2000/svg" width="100" height="100" viewBox="0 0 100 100"><path d="M87.06 26.29c-.483 0-.918.2-1.23.522L57.41 43.22V28.01a1.718 1.718 0 0 0-2.948-1.198L21.144 46.05V22.666h-.013c.003-.04.013-.075.013-.114 0-1.4-1.134-2.533-2.532-2.536h-4.85v.024a2.537 2.537 0 0 0-2.538 2.538c0 .045.01.086.013.13v54.968h.024a2.53 2.53 0 0 0 2.512 2.296c.03 0 .058-.008.087-.01h4.568c.07.007.14.022.213.022 1.4 0 2.538-1.136 2.538-2.537 0-.117-.02-.23-.035-.343V53.962l33.34 19.25a1.715 1.715 0 0 0 2.92-1.172h.007V56.79L85.85 73.214a1.715 1.715 0 0 0 2.92-1.172h.004V28.01c0-.95-.77-1.72-1.717-1.72z"/></svg>