<svg xmlns="http://www.w3.org/2000/svg" width="100" height="100" viewBox="0 0 100 100"><path d="M88.158 16.51c0-.987-.798-1.786-1.785-1.787H13.628c-.987 0-1.786.8-1.786 1.785v6.386c0 .986.8 1.785 1.786 1.785h72.746c.987 0 1.785-.8 1.785-1.786l-.002-6.385zM82.026 29.66H17.974c-.986 0-1.785.8-1.785 1.785V68.61c0 2.2 1.856 3.982 4.15 3.982h27.17v5.373a4.067 4.067 0 0 0-1.598 3.222 4.09 4.09 0 0 0 8.178 0 4.065 4.065 0 0 0-1.6-3.223V72.59h27.17c2.293 0 4.15-1.78 4.15-3.982V31.412h-.002a1.786 1.786 0 0 0-1.782-1.753z"/></svg>