<svg xmlns="http://www.w3.org/2000/svg" width="100" height="100" viewBox="0 0 100 100"><path d="M81.465 66.127c-.022-.038-.052-.07-.076-.105l-26.903-46.6-.014.008a2.08 2.08 0 0 0-.93-.8l.04-.023-11.01-6.357v.044a2.082 2.082 0 0 0-1.847-.107l-.012-.02-.206.118c-.004.003-.01.003-.013.006l-.012.01L19.3 24.53a2.078 2.078 0 0 0-1.037 1.763l-.007-.004v12.713l.02-.012c-.046.428.03.873.262 1.274.014.024.032.042.047.065L45.4 86.774c.027.055.045.112.076.166a2.085 2.085 0 0 0 2.772.802l.005.008 32.465-18.743-.014-.025a2.092 2.092 0 0 0 .76-2.855zm-45.1-36.766a3.865 3.865 0 1 1 1.416-5.278 3.864 3.864 0 0 1-1.414 5.28z"/></svg>