<svg xmlns="http://www.w3.org/2000/svg" width="100" height="100" viewBox="0 0 100 100"><g fill="#231F20"><path d="M93.194 18a4.472 4.472 0 0 0-4.472-4.472c-.228 0-.447.034-.667.067V13.5H11.25v.028A4.472 4.472 0 0 0 6.778 18v64.5h.05c.252 2.23 2.123 3.972 4.42 3.972v.028h76.806v-.095c.22.033.438.067.667.067 2.3 0 4.17-1.74 4.423-3.972h.078V18h-.026zm-9.93 58.543h-10.86a1.88 1.88 0 0 0-.166-.442l.018-.01-22.72-39.35-.008.006a3.073 3.073 0 0 0-2.764-1.74 3.08 3.08 0 0 0-2.807 1.82l-15.12 26.187-3.7-6.41-.006.002a1.62 1.62 0 0 0-1.456-.918c-.66 0-1.224.395-1.48.958l-5.46 9.457V23.485h66.53v53.058z"/><circle cx="68.122" cy="38.584" r="10.1"/></g></svg>