<svg xmlns="http://www.w3.org/2000/svg" width="100" height="100" viewBox="0 0 100 100"><path d="M90.443 35.14a1.825 1.825 0 0 0-1.818-1.707H75.51V11.857a1.83 1.83 0 0 0-1.83-1.83H26.32a1.83 1.83 0 0 0-1.83 1.83v21.576H11.376h-.002c-.97 0-1.754.755-1.818 1.708h-.012v36.77c0 1.01.82 1.83 1.83 1.83H24.49V58.424H75.51V73.74h13.114c1.01 0 1.83-.82 1.83-1.83V35.14h-.01zm-19.92 6.49H29.477V16.845c0-1.012.82-1.83 1.83-1.83h37.387c1.01 0 1.83.818 1.83 1.83V41.63z"/><path d="M29.602 88.143c0 1.012.82 1.83 1.83 1.83h37.136a1.83 1.83 0 0 0 1.83-1.83v-24.64H29.602v24.64z"/></svg>