<svg xmlns="http://www.w3.org/2000/svg" width="100" height="100" viewBox="0 0 100 100"><path d="M76.587 22.655l-.043.043a2.17 2.17 0 0 0-1.484-.59c-.553 0-1.052.212-1.437.55v-.003l-.09.08-.02.016-4.122 3.633c-.03.03-.066.055-.097.086l-.008.005a2.175 2.175 0 0 0 .406 3.365c4.864 4.973 7.87 11.77 7.87 19.257 0 15.196-12.362 27.56-27.56 27.56-15.2 0-27.56-12.363-27.56-27.56 0-7.56 3.06-14.42 8.01-19.406l-.05-.047c.465-.4.766-.986.766-1.647 0-.59-.237-1.126-.62-1.52h.002l-.008-.007c-.03-.032-.066-.058-.098-.087L26.32 22.75l-.02-.015-.09-.08v.004a2.166 2.166 0 0 0-1.437-.552c-.81 0-1.508.445-1.885 1.1C16.458 29.94 12.5 39.054 12.5 49.098c0 20.71 16.788 37.497 37.5 37.497s37.5-16.788 37.5-37.498c0-10.317-4.17-19.662-10.913-26.442z"/><path d="M47.203 62.733h5.593a2.184 2.184 0 0 0 2.184-2.184V15.593v-.005a2.184 2.184 0 0 0-2.184-2.185h-5.593c-1.203.002-2.18.98-2.18 2.184V60.548c0 1.205.976 2.18 2.18 2.183z"/></svg>