<svg xmlns="http://www.w3.org/2000/svg" width="100" height="100" viewBox="0 0 100 100"><path d="M73.603 78.553h-6.49a1.73 1.73 0 0 0-1.73 1.73h-.007v3.01h-40.64V36.16h17.722a1.73 1.73 0 0 0 1.73-1.73V16.707h21.188v20.627h.008a1.73 1.73 0 0 0 1.73 1.726h6.49a1.73 1.73 0 0 0 1.73-1.726v-.004V12.5h-.006V8.48a1.73 1.73 0 0 0-1.73-1.73h-32.87L14.777 32.7V91.52c0 .955.774 1.73 1.73 1.73h57.089a1.73 1.73 0 0 0 1.73-1.73v-2.45h.005v-8.788c0-.954-.773-1.73-1.73-1.73z"/><path d="M79.21 58.75l5.505-5.504a1.73 1.73 0 0 0 0-2.447l-4.894-4.894a1.73 1.73 0 0 0-2.445 0L71.87 51.41l-5.505-5.504a1.73 1.73 0 0 0-2.446 0L59.025 50.8a1.73 1.73 0 0 0 0 2.447l5.505 5.505-5.504 5.505a1.73 1.73 0 0 0 0 2.446l4.894 4.893a1.73 1.73 0 0 0 2.446 0l5.505-5.505 5.506 5.506a1.73 1.73 0 0 0 2.446 0l4.894-4.893a1.73 1.73 0 0 0 0-2.446L79.21 58.75z"/></svg>