<svg xmlns="http://www.w3.org/2000/svg" width="100" height="100" viewBox="0 0 100 100"><path d="M78.59 48.774V35.887h-.002a3.967 3.967 0 0 0-3.87-3.953v-.038H62.666c-.06.002-.115.018-.175.018s-.115-.016-.174-.018h-.203v-.02c-2.8-.2-5.016-2.51-5.016-5.357 0-1.237.432-2.362 1.13-3.272h-.105a8.168 8.168 0 0 0 1.098-4.092 8.22 8.22 0 0 0-8.223-8.22 8.22 8.22 0 0 0-8.22 8.22c0 1.49.402 2.886 1.097 4.092h-.09a5.35 5.35 0 0 1 1.116 3.256c0 2.847-2.216 5.157-5.017 5.354v.038H25.36v.02a3.972 3.972 0 0 0-3.954 3.97c0 .06.015.113.017.17V49.48h.043a2.245 2.245 0 0 0 2.243 2.244c.225 0 .44-.045.644-.11a9.727 9.727 0 0 1 3.883-.807c5.393 0 9.764 4.37 9.764 9.762s-4.37 9.762-9.763 9.762a9.73 9.73 0 0 1-3.788-.764 2.23 2.23 0 0 0-.77-.144 2.24 2.24 0 0 0-2.242 2.244c0 .127.017.25.038.372h-.053v12.884c-.003.058-.017.112-.017.17 0 2.19 1.78 3.973 3.973 3.973.108 0 .21-.023.318-.032H38.89a2.245 2.245 0 0 0 2.244-2.246c0-.248-.05-.48-.124-.704 0-.004-.003-.01-.004-.014-.017-.052-.027-.107-.048-.156h.008a9.77 9.77 0 0 1-.397-2.74 9.76 9.76 0 0 1 9.76-9.763 9.76 9.76 0 0 1 9.763 9.763 9.76 9.76 0 0 1-.397 2.74h.025a2.245 2.245 0 0 0 2.066 3.123c.014 0 .026-.003.04-.003h12.79a3.974 3.974 0 0 0 3.97-3.933h.005V72.038h-.045a2.234 2.234 0 0 0-2.216-1.964v-.1a9.747 9.747 0 0 1-2.568.354c-5.392 0-9.763-4.37-9.763-9.762 0-5.39 4.37-9.762 9.762-9.762.89 0 1.748.13 2.567.353v-.094l.024.002c1.01 0 1.853-.67 2.134-1.588h.103v-.605c0-.017.006-.032.006-.05-.002-.016-.006-.03-.007-.048z"/></svg>