<svg xmlns="http://www.w3.org/2000/svg" width="100" height="100" viewBox="0 0 100 100"><path d="M73.682 78.553h-6.49a1.73 1.73 0 0 0-1.73 1.73h-.007v3.01h-40.64V36.16h17.722a1.73 1.73 0 0 0 1.73-1.73V16.707h21.188v20.627h.008a1.73 1.73 0 0 0 1.73 1.726h6.49a1.73 1.73 0 0 0 1.73-1.726v-.004V12.5h-.006V8.48a1.73 1.73 0 0 0-1.73-1.73h-32.87L14.857 32.7V91.52c0 .955.774 1.73 1.73 1.73h57.088a1.73 1.73 0 0 0 1.73-1.73v-2.45h.005v-8.788c.002-.954-.772-1.73-1.728-1.73z"/><path d="M83.413 53.562h-7.785v-7.785a1.73 1.73 0 0 0-1.73-1.73h-6.92a1.73 1.73 0 0 0-1.73 1.73v7.785h-7.785a1.73 1.73 0 0 0-1.73 1.73v6.92c0 .955.774 1.73 1.73 1.73h7.785v7.785c0 .956.774 1.73 1.73 1.73h6.92a1.73 1.73 0 0 0 1.73-1.73v-7.785h7.785a1.73 1.73 0 0 0 1.73-1.73v-6.92a1.73 1.73 0 0 0-1.73-1.73z"/></svg>