<svg xmlns="http://www.w3.org/2000/svg" width="100" height="100" viewBox="0 0 100 100"><path d="M84.54 21.586a1.515 1.515 0 0 0-2.393-1.222l-5.945 4.26-.468.337c-6.405-6.392-15.196-10.39-24.937-10.39-19.535 0-35.427 15.895-35.427 35.43s15.893 35.427 35.427 35.427A35.42 35.42 0 0 0 80.17 69.81a1.77 1.77 0 0 0-.474-2.46l-8.863-6.152a1.9 1.9 0 0 0-2.628.512c-3.918 5.792-10.41 9.25-17.375 9.25-11.558 0-20.962-9.402-20.962-20.957s9.404-20.957 20.962-20.957c4.878 0 9.352 1.696 12.914 4.5l-1 .72-5.95 4.26a1.513 1.513 0 0 0 .398 2.656l25.446 8.67a1.5 1.5 0 0 0 1.368-.204c.4-.29.63-.747.627-1.23l-.094-26.832z"/></svg>