<svg xmlns="http://www.w3.org/2000/svg" width="100" height="100" viewBox="0 0 100 100"><path d="M26.258 64.95a8.78 8.78 0 0 0-8.78 8.783 8.782 8.782 0 0 0 17.564 0 8.78 8.78 0 0 0-8.784-8.784z"/><path d="M23.536 40.8c-.046 0-.09.007-.135.008V40.8h-3.463v.04a3.437 3.437 0 0 0-3.056 3.344h-.006v6.16h.04a3.43 3.43 0 0 0 3.022 3v.04H23.4v-.048c.045 0 .09.007.135.007 12.772 0 23.173 10.32 23.31 23.06h-.032v3.465h.04a3.437 3.437 0 0 0 3.343 3.056v.007h6.158v-.04a3.43 3.43 0 0 0 3.002-3.02h.04v-3.465h-.007C59.25 56.748 43.222 40.8 23.535 40.8z"/><path d="M83.12 76.403c-.14-32.74-26.812-59.333-59.584-59.333-.046 0-.09.006-.135.007v-.007h-3.463v.04a3.437 3.437 0 0 0-3.056 3.343h-.006v6.16h.04a3.43 3.43 0 0 0 3.022 3v.04H23.4v-.048c.045 0 .09.007.135.007 25.857 0 46.902 20.967 47.04 46.792h-.034v3.464h.04a3.437 3.437 0 0 0 3.344 3.056v.007h6.16v-.04a3.43 3.43 0 0 0 3-3.02h.04v-3.465h-.005z"/></svg>