<svg xmlns="http://www.w3.org/2000/svg" width="100" height="100" viewBox="0 0 100 100"><path d="M78.94 49.005a1.51 1.51 0 0 0 .604-1.242l-.61-26.82a1.517 1.517 0 0 0-.85-1.323 1.518 1.518 0 0 0-1.565.145l-5.862 4.375-.46.345C63.67 18.22 54.802 14.39 45.063 14.58c-19.532.375-35.115 16.573-34.74 36.102.377 19.53 16.573 35.115 36.105 34.74a36.53 36.53 0 0 0 2.1-.106s.468-.024 1.007-.27c.007-.004.013-.008.02-.01a2.8 2.8 0 0 0 .718-.496c.033-.03.068-.06.1-.092l.018-.017c.014-.014.02-.03.03-.044a2.58 2.58 0 0 0 .66-1.766c0-.027-.01-.052-.01-.08l-.175-9.104h-.008c0-.028.007-.054.007-.082a2.597 2.597 0 0 0-2.647-2.548v-.003c-.683.08-1.37.138-2.067.152-11.556.223-21.14-8.997-21.362-20.55-.222-11.554 9-21.135 20.556-21.358 4.878-.094 9.383 1.517 12.998 4.25l-.986.74-5.866 4.374a1.517 1.517 0 0 0-.583 1.46c.09.557.49 1.02 1.03 1.19l25.61 8.176a1.5 1.5 0 0 0 1.36-.23z"/><path d="M67.11 59.835l-5.942 6.204 2.384 2.406 3.14-3.322.268 13.963 4.096-.08-.37-19.24zM81.525 59.27c-5.51.105-7.867 5.114-7.77 10.076.095 4.962 2.643 9.906 8.153 9.8 5.51-.106 7.866-5.145 7.77-10.107-.095-4.963-2.643-9.877-8.153-9.77zm.313 16.24c-2.74.054-3.832-2.696-3.9-6.244s.916-6.31 3.657-6.362c2.77-.053 3.832 2.668 3.9 6.216.07 3.548-.916 6.338-3.657 6.39z"/></svg>