<svg xmlns="http://www.w3.org/2000/svg" width="100" height="100" viewBox="0 0 100 100"><path d="M50 11c-21.54 0-39 17.46-39 39 0 10.157 3.886 19.407 10.25 26.345a30.148 30.148 0 0 1 9.01-6.986 29.96 29.96 0 0 1 13.665-3.263 30.187 30.187 0 0 1 20.51 8.014 30.194 30.194 0 0 1 6.56 8.75C81.817 75.93 89 63.81 89 50c0-21.54-17.46-39-39-39zm18.467 54.146a2.598 2.598 0 0 1-3.618.654 36.167 36.167 0 0 0-20.71-6.475c-4.306 0-8.52.744-12.52 2.21a2.597 2.597 0 0 1-3.337-1.546 2.6 2.6 0 0 1 1.547-3.337 41.438 41.438 0 0 1 14.31-2.525c8.505 0 16.692 2.56 23.672 7.398a2.602 2.602 0 0 1 .655 3.62zm5.673-11.993a2.92 2.92 0 0 1-4.03.93 48.95 48.95 0 0 0-25.97-7.432 48.96 48.96 0 0 0-15.006 2.343 2.927 2.927 0 0 1-1.787-5.574A54.95 54.95 0 0 1 44.14 40.8c10.31 0 20.36 2.88 29.07 8.322a2.925 2.925 0 0 1 .93 4.03zm2.864-10.402a3.23 3.23 0 0 1-1.643-.448 61.707 61.707 0 0 0-31.222-8.47c-5.94 0-11.82.85-17.48 2.517a3.25 3.25 0 0 1-1.837-6.236 68.37 68.37 0 0 1 19.317-2.78c12.15 0 24.085 3.238 34.514 9.365a3.25 3.25 0 0 1-1.648 6.05zM54.908 84.444a16.157 16.157 0 0 0-10.983-4.293c-2.57 0-5.03.587-7.312 1.747a16.116 16.116 0 0 0-4.085 2.97A38.83 38.83 0 0 0 49.998 89c2.71 0 5.354-.276 7.908-.804a16.136 16.136 0 0 0-2.998-3.752z"/></svg>