<svg xmlns="http://www.w3.org/2000/svg" width="100" height="100" viewBox="0 0 100 100"><path d="M52.872 17.026h10.352v21.47H52.872z"/><path d="M86.217 19.195l.006-.006-5.21-5.213a2.375 2.375 0 0 0-1.76-.785c-.015 0-.027.004-.04.004h-9.088v.024c-.286.03-.564.128-.78.344a1.246 1.246 0 0 0-.342.78h-.028v25.305h-.01a2.382 2.382 0 0 1-2.377 2.3H32.136v-.013a2.373 2.373 0 0 1-2.26-2.288h-.008V14.342h-.048a1.38 1.38 0 0 0-.368-.735 1.368 1.368 0 0 0-1.12-.387v-.027h-12.95a2.385 2.385 0 0 0-2.386 2.388v68.843a2.384 2.384 0 0 0 2.387 2.386h7.57V53.802h.01a2.385 2.385 0 0 1 1.92-2.254v-.013h.13c.11-.015.216-.032.327-.032h49.387v.01a2.375 2.375 0 0 1 2.292 2.29h.008V86.81h7.58a2.386 2.386 0 0 0 2.388-2.386V21.028c0-.026.007-.05.007-.074 0-.7-.306-1.325-.786-1.76z"/></svg>