<svg xmlns="http://www.w3.org/2000/svg" width="100" height="100" viewBox="0 0 100 100"><path d="M19.4 62.222H8.023a2.536 2.536 0 0 0-3.013 2h-.047v11h.076a2.527 2.527 0 0 0 2.078 1.906v.094h17v-.06c1.74-.022 3.23-1.01 4.002-2.444L38.63 64.206 28.024 53.6 19.4 62.22zM94.65 30.776l-18.613-13.26a1.255 1.255 0 0 0-1.32-.094c-.427.22-.687.662-.687 1.146l.002 5.6H59.116v.025a4.577 4.577 0 0 0-2.78 1.138l-.022-.02L45.722 35.9 56.33 46.507l7.34-7.34h10.368l.002 6.004c0 .482.27.925.7 1.147.43.222.946.183 1.34-.1l18.576-13.345c.338-.24.46-.63.46-1.046v-.003c0-.417-.125-.806-.465-1.047z"/><path d="M94.578 67.126L76.002 53.78a1.29 1.29 0 0 0-2.04 1.048v6.005H63.59L28.04 25.28c-.772-1.434-2.263-2.42-4-2.44v-.062h-17v.094a2.527 2.527 0 0 0-2.08 1.906h-.076v11h.05a2.535 2.535 0 0 0 3.012 2h11.378L56.237 74.69l.02-.02a4.583 4.583 0 0 0 2.783 1.138v.026h14.916l-.002 5.6c0 .483.26.927.688 1.145.43.222.926.186 1.32-.094l18.613-13.26c.34-.242.465-.63.465-1.05v-.003c0-.415-.124-.806-.462-1.047z"/></svg>