<svg xmlns="http://www.w3.org/2000/svg" width="100" height="100" viewBox="0 0 100 100"><circle cx="32.961" cy="81.02" r="5.889"/><circle cx="74.309" cy="81.02" r="5.889"/><path d="M73.513 55.216a3.443 3.443 0 0 0 3.11-1.978l.003.002 14.59-25.27-.02-.01a3.42 3.42 0 0 0 .345-1.477 3.45 3.45 0 0 0-3.45-3.452H34.498v-6.487a3.45 3.45 0 0 0-3.453-3.452h-18.86v.03c-.093-.01-.182-.03-.276-.03a3.44 3.44 0 0 0-3.41 3.036h-.04v3.452a3.45 3.45 0 0 0 3.45 3.452c.095 0 .184-.02.276-.028v.028H24.56v43.733a3.45 3.45 0 0 0 3.45 3.442h59.257v-.085a3.433 3.433 0 0 0 3.185-2.922h.05v-.49-.018V63.67v-.018a3.44 3.44 0 0 0-3.235-3.43v-.02h-52.77v-4.99h39.016z"/></svg>