<svg xmlns="http://www.w3.org/2000/svg" width="100" height="100" viewBox="0 0 100 100"><path d="M88.5 26.12a31.562 31.562 0 0 1-9.073 2.486 15.84 15.84 0 0 0 6.945-8.738 31.583 31.583 0 0 1-10.03 3.832 15.783 15.783 0 0 0-11.532-4.988c-8.724 0-15.798 7.072-15.798 15.798 0 1.237.14 2.444.41 3.6-13.13-.658-24.77-6.948-32.562-16.507a15.73 15.73 0 0 0-2.14 7.943 15.79 15.79 0 0 0 7.03 13.15 15.762 15.762 0 0 1-7.156-1.977c-.002.065-.002.13-.002.198 0 7.652 5.445 14.037 12.67 15.49a15.892 15.892 0 0 1-7.133.27c2.01 6.275 7.843 10.844 14.756 10.972a31.704 31.704 0 0 1-19.62 6.763 31.92 31.92 0 0 1-3.77-.22 44.715 44.715 0 0 0 24.217 7.095c29.058 0 44.948-24.07 44.948-44.945 0-.684-.015-1.367-.045-2.046A32.03 32.03 0 0 0 88.5 26.12z"/></svg>