<svg xmlns="http://www.w3.org/2000/svg" width="100" height="100" viewBox="0 0 100 100"><path fill="#231F20" d="M79 14H21a7 7 0 0 0-7 7v58a7 7 0 0 0 7 7h58a7 7 0 0 0 7-7V21a7 7 0 0 0-7-7zm-23.045 5.23c10.658 0 19.298 8.64 19.298 19.298a19.2 19.2 0 0 1-3.482 11.04 16.854 16.854 0 0 0-10.464-3.635c-6.582 0-12.275 3.76-15.082 9.242-5.718-3.35-9.568-9.54-9.568-16.646 0-10.66 8.64-19.3 19.3-19.3zm-36.103 27.7c0-11.634 8.755-21.22 20.036-22.54-3.324 3.775-5.356 8.714-5.356 14.14 0 7.98 4.373 14.927 10.845 18.613a17.45 17.45 0 0 0-.64 2.295 11.95 11.95 0 0 0-3.43-.505c-4.89 0-9.087 2.94-10.936 7.148-6.322-4.03-10.518-11.097-10.518-19.15zm21.454 34.146c-5.632 0-10.197-4.564-10.197-10.197 0-5.632 4.564-10.197 10.196-10.197 5.63 0 10.197 4.565 10.197 10.196 0 5.632-4.566 10.196-10.197 10.196zm20-3.25a14.862 14.862 0 0 1-8.782-2.87c.463-1.274.73-2.643.73-4.077 0-4.69-2.71-8.736-6.64-10.692 1.27-6.968 7.357-12.255 14.693-12.255 8.255 0 14.947 6.692 14.947 14.946 0 8.255-6.693 14.946-14.948 14.946z"/></svg>