<svg xmlns="http://www.w3.org/2000/svg" width="100" height="100" viewBox="0 0 100 100"><g fill="#231F20"><path d="M45.718 55.325c-3.727-1.408-7.23-3.226-10.202-5.4-.077-.057-.157-.112-.233-.17-.433-.32-.85-.653-1.26-.99-.106-.088-.21-.178-.315-.267-.353-.3-.697-.606-1.03-.92-.062-.057-.127-.114-.188-.172-.373-.357-.73-.724-1.074-1.096a22.28 22.28 0 0 1-1.145-1.333c-.04-.052-.085-.102-.125-.154a19.66 19.66 0 0 1-.862-1.204c-.07-.105-.137-.21-.204-.316-.246-.385-.48-.774-.693-1.17-.02-.04-.045-.078-.066-.118a16.715 16.715 0 0 1-.75-1.642 15.6 15.6 0 0 1-.462-1.318l-.02-.06a14.956 14.956 0 0 1-.393-1.762c-.08-.482-.144-.968-.176-1.464a25.967 25.967 0 0 1-.048-1.963c.002-.2.018-.392.025-.59.016-.446.04-.89.08-1.328.022-.22.052-.436.08-.653a20.54 20.54 0 0 1 .317-1.854c.09-.413.198-.82.315-1.224.052-.184.103-.367.162-.548.148-.454.316-.9.5-1.34.048-.12.09-.243.143-.362a18.91 18.91 0 0 1 3.185-4.943l-15.07 3.608a5.637 5.637 0 0 0-4.17 6.793l12.534 52.42a5.637 5.637 0 0 0 6.793 4.172l6.45-1.543c-2.503-.83-6.832-2.41-10.98-4.623L32.85 68.15s7.08 6.304 17.243 6.304c10.165 0 14.682-11.93-4.375-19.13zM87.96 68.632l-12.535-52.42a5.636 5.636 0 0 0-6.793-4.172l-10.797 2.58a41.758 41.758 0 0 1 4.282.917c.117.03.237.064.357.097.24.066.488.136.738.21a45.012 45.012 0 0 1 1.477.454c.116.037.237.08.355.12a53.16 53.16 0 0 1 1.32.463c.286.106.576.216.868.33.133.052.263.1.397.154.405.162.817.335 1.234.515.14.06.285.126.428.19a51.746 51.746 0 0 1 1.39.643c.452.22.906.444 1.365.685l-4.702 13.03s-3.913-4.37-14.405-4.903c-9.974-.504-15.522 10.285 3.93 16.647a47.04 47.04 0 0 1 1.67.585c.15.055.3.112.447.17.42.16.832.323 1.234.49.124.052.25.102.37.154.508.22 1.004.442 1.484.672l.18.09a37.57 37.57 0 0 1 1.575.813c.378.208.75.42 1.108.636.064.04.13.077.194.116.424.26.833.523 1.23.792l.2.14c.328.227.646.457.954.69.084.064.17.127.252.192.357.276.706.556 1.038.84 5.63 4.836 7.638 10.852 7.476 16.563-.128 4.513-1.707 8.184-3.538 10.953l11.048-2.64a5.638 5.638 0 0 0 4.17-6.794z"/></g></svg>