<svg xmlns="http://www.w3.org/2000/svg" width="100" height="100" viewBox="0 0 100 100"><path d="M25.194 51.59c1.757 1.38 3.766 2.07 6.026 2.07 2.855-.106 5.234-1.132 7.138-3.077.918-1.377 1.508-2.79 1.77-4.24.157-1.447.236-2.668.236-3.658 0-4.276-1.094-8.588-3.28-12.936-1.027-2.085-2.377-3.782-4.052-5.09-1.71-1.237-3.675-1.892-5.897-1.962-2.94.07-5.384 1.256-7.33 3.553-1.645 2.405-2.43 5.09-2.36 8.058 0 3.924 1.148 8.008 3.445 12.248a16.74 16.74 0 0 0 4.304 5.035zM31.78 68.05a23.03 23.03 0 0 1-2.09-3.3c-.714-1.132-1.07-2.5-1.07-4.095 0-.957.135-1.756.407-2.395.238-.674.46-1.293.663-1.86a30.29 30.29 0 0 1-3.485.212c-5.17-.062-9.237-1.527-12.205-4.388v19.338a33.422 33.422 0 0 1 8.24-2.56c3.83-.565 7.01-.882 9.54-.952zM34.74 71.114a23.873 23.873 0 0 0-2.435-.107c-.553-.07-1.97 0-4.248.213a46.623 46.623 0 0 0-6.89 1.533c-.553.213-1.33.53-2.33.953-1.003.46-2.022 1.11-3.057 1.96A10.843 10.843 0 0 0 14 77.69v2.95a5.018 5.018 0 0 0 5.013 5.013H46.34c0-.068.004-.133.004-.2 0-2.75-.9-5.15-2.694-7.196-1.9-1.94-4.87-4.32-8.91-7.143z"/><path d="M80.986 14.347H19.013A5.016 5.016 0 0 0 14 19.36v6.724c.316-.336.643-.67.985-1 3.083-2.54 6.288-4.195 9.612-4.973 3.29-.67 6.375-1.003 9.253-1.003h21.692l-6.7 3.91h-6.688c.68.422 1.448 1.04 2.3 1.852.816.845 1.617 1.886 2.4 3.12.75 1.164 1.413 2.54 1.992 4.127.476 1.586.715 3.44.715 5.555-.063 3.88-.92 6.984-2.568 9.312a29.44 29.44 0 0 1-2.57 3.12 102.307 102.307 0 0 1-3.198 2.91 15.086 15.086 0 0 0-1.793 2.276c-.645.88-.97 1.904-.97 3.068 0 1.13.333 2.062.995 2.803a21.86 21.86 0 0 0 1.64 1.855l3.68 3.016a36.958 36.958 0 0 1 6.017 6.19c1.625 2.293 2.47 5.29 2.536 8.994 0 1.53-.198 3.01-.592 4.44h28.25A5.018 5.018 0 0 0 86 80.638V19.36a5.017 5.017 0 0 0-5.014-5.013zm3.945 22.117H73.55v11.383h-5.515V36.464H56.653V30.95h11.382V19.57h5.514v11.38h11.38v5.514z"/></svg>