<svg xmlns="http://www.w3.org/2000/svg" width="100" height="100" viewBox="0 0 100 100"><path d="M92.43 40.935a7.04 7.04 0 0 1-14.08 0 7.043 7.043 0 0 1 7.04-7.04 7.044 7.044 0 0 1 7.04 7.04zM85.354 27.83c-7.218 0-13.08 5.823-13.145 13.026l-8.19 11.736a9.715 9.715 0 0 0-6.025 1.326L20.9 39c-.97-4.4-4.902-7.718-9.585-7.718-5.406 0-9.815 4.424-9.815 9.828 0 5.41 4.41 9.816 9.815 9.816 1.83 0 3.54-.504 5.01-1.38l37.093 14.89c.96 4.412 4.893 7.733 9.584 7.733 5.083 0 9.275-3.897 9.762-8.86l12.59-9.2c7.257 0 13.145-5.877 13.145-13.135S92.61 27.83 85.353 27.83zm0 4.333c4.863 0 8.813 3.95 8.813 8.812 0 4.863-3.95 8.8-8.813 8.8-4.86 0-8.813-3.937-8.813-8.8 0-4.86 3.953-8.812 8.814-8.812zm-74.04 1.72a7.198 7.198 0 0 1 6.378 3.83l-3.588-1.435v.016a5.723 5.723 0 0 0-7.256 3.248 5.735 5.735 0 0 0 2.978 7.38v.013l3.046 1.215a7.2 7.2 0 0 1-1.557.178c-4 0-7.215-3.217-7.215-7.217 0-3.998 3.215-7.228 7.215-7.228zm51.688 21.253c4 0 7.216 3.217 7.216 7.217a7.197 7.197 0 0 1-7.216 7.215 7.192 7.192 0 0 1-6.39-3.844c1.188.48 2.376.953 3.56 1.436 2.942 1.182 6.293-.242 7.474-3.182 1.183-2.94-.254-6.275-3.196-7.46l-3.004-1.204a7.39 7.39 0 0 1 1.556-.178z"/></svg>