<svg xmlns="http://www.w3.org/2000/svg" width="100" height="100" viewBox="0 0 100 100"><path d="M90.694 76.98a.99.99 0 0 0-.703-.29v-.012h-5.207c3.816-2.52 5.064-4.32 5.064-6.504 0-3.216-2.712-5.52-6.865-5.52-2.138 0-4.685.694-6.52 2.48-.044.03-.093.048-.13.087-.028.028-.04.064-.063.094-.02.018-.04.033-.056.052l.012.014a.967.967 0 0 0 .005 1.096l-.015.01 1.367 1.995a.98.98 0 0 0 1.266.093l.007.01c.036-.03.072-.057.108-.086.007-.007.017-.01.025-.016.002 0 .003-.004.005-.006 1.184-.965 2.446-1.548 4.088-1.548 1.033 0 1.85.48 1.85 1.248 0 1.2-.697 1.8-8.018 6.96v.022c-.067.04-.14.073-.197.13a.97.97 0 0 0-.267.58h-.024v2.608c0 .24.195.437.437.437.02 0 .035-.007.053-.01v.005h13.082a.992.992 0 0 0 .994-.994v-2.224c-.005-.257-.102-.51-.296-.705zM70.495 33.34l-3.39-3.39a2.604 2.604 0 0 0-3.682 0l-.016-.016-13.033 13.034L37.34 29.934a2.604 2.604 0 0 0-3.683 0l-3.39 3.39a2.604 2.604 0 0 0 0 3.682l-.015.016 13.033 13.033L30.252 63.09l.016.016a2.604 2.604 0 0 0 0 3.683l3.39 3.388a2.604 2.604 0 0 0 3.682 0l13.033-13.033 13.033 13.033.016-.016a2.604 2.604 0 0 0 3.683 0l3.39-3.39a2.604 2.604 0 0 0 0-3.682L57.46 50.056l13.033-13.033a2.603 2.603 0 0 0 0-3.683z"/></svg>