<svg xmlns="http://www.w3.org/2000/svg" width="100" height="100" viewBox="0 0 100 100"><path d="M45.697 45.697a6.083 6.083 0 0 0-.002 8.603 6.082 6.082 0 0 0 8.606 0 6.08 6.08 0 0 0 0-8.606 6.08 6.08 0 0 0-8.603.003zM76.55 79.165c15.97-16.11 15.933-42.207-.123-58.263-.023-.023-.05-.037-.073-.06l.006-.005-1.696-1.698-.02.02a2.38 2.38 0 0 0-3.136.14l-.003-.003-.026.026-.01.007c0 .002-.003.005-.005.008l-2.773 2.772s-.002 0-.002.002 0 .002-.002.002l-.2.2.02.02a2.376 2.376 0 0 0 .01 2.95l-.02.02.19.19h.002L70.196 27l.027-.027c.022.023.037.05.06.073C82.95 39.714 82.99 60.3 70.405 73.02l-.017-.017-1.504 1.504s-.002 0-.003.002v.002l-.19.188.02.02a2.38 2.38 0 0 0 .14 3.135l-.002.003.03.03.003.004c.002 0 .003 0 .004.002l1.396 1.396.002.003s.002 0 .003.002l1.376 1.376.003.004s.002 0 .003.002l.198.198.02-.02c.868.682 2.088.68 2.952-.01l.02.02 1.566-1.568a.018.018 0 0 1 .005-.004l.018-.02.107-.106h-.003z"/><path d="M64.923 67.54c9.56-9.7 9.523-25.365-.123-35.01-.023-.023-.05-.037-.073-.06l.007-.007-1.697-1.698-.02.02a2.382 2.382 0 0 0-3.136.14l-.002-.002-.03.03-.004.003c-.002 0-.003.003-.004.005l-2.774 2.775-.004.003-.003.004-.2.198.02.02a2.376 2.376 0 0 0 .01 2.95l-.02.02.19.19h.002c0 .002 0 .002.002.003l1.504 1.505.027-.027c.022.024.037.05.06.074 6.258 6.257 6.293 16.407.12 22.717l-.014-.012-1.504 1.505h-.002c-.002 0 0 .002 0 .003l-.19.19.02.018a2.38 2.38 0 0 0 .14 3.135l-.004.003 2.816 2.815.2.2.02-.02c.87.682 2.088.68 2.952-.008l.02.02 1.572-1.572.125-.125-.002-.003z"/><g><path d="M54.305 45.7a6.083 6.083 0 0 0-8.606 0 6.08 6.08 0 0 0 0 8.604 6.08 6.08 0 0 0 8.604 0 6.084 6.084 0 0 0 0-8.604z"/><path d="M43.11 63.09l.018-.02-.188-.188-.003-.004-.003-.003-1.503-1.504-.026.028c-.022-.023-.037-.05-.06-.072-6.257-6.258-6.292-16.408-.118-22.718l.013.013 1.696-1.695-.02-.02a2.38 2.38 0 0 0-.14-3.135l.003-.004-3.02-3.017-.02.02a2.376 2.376 0 0 0-2.95.008l-.02-.02-.19.192-1.38 1.38-.126.126.003.003c-9.562 9.698-9.523 25.364.123 35.01.022.022.05.037.072.06l-.006.005 1.697 1.698.02-.02a2.382 2.382 0 0 0 3.135-.14l.003.002.03-.03c.002 0 .004-.002.005-.003l.004-.005 2.774-2.775s.002 0 .003-.002l.002-.002.198-.2-.02-.02a2.374 2.374 0 0 0-.01-2.95z"/><path d="M31.483 74.715l.02-.02-.19-.19h-.002l-1.506-1.506-.027.026c-.022-.023-.037-.05-.06-.073-12.667-12.67-12.705-33.253-.12-45.973l.016.016 1.504-1.504s.002 0 .003-.002l.002-.003.188-.188-.02-.02a2.38 2.38 0 0 0-.14-3.136l.004-.004-1.434-1.434-.002-.002-1.58-1.58-.02.02a2.376 2.376 0 0 0-2.952.01l-.02-.02-1.696 1.696.003.003c-15.974 16.11-15.936 42.21.12 58.265.024.023.05.037.074.06l-.007.006 1.697 1.698.02-.02a2.382 2.382 0 0 0 3.136-.142l.003.003.033-.033 2.777-2.78c.002 0 .004-.002.005-.003l.004-.005.196-.196-.02-.02a2.376 2.376 0 0 0-.01-2.95z"/></g></svg>