<svg xmlns="http://www.w3.org/2000/svg" width="100" height="100" viewBox="0 0 100 100"><g fill="#231F20"><path d="M60.623 18.128l3.36-6.136a.668.668 0 1 0-1.17-.644l-3.395 6.197a23.172 23.172 0 0 0-9.432-1.978 23.09 23.09 0 0 0-9.41 1.972l-3.4-6.185a.663.663 0 0 0-.903-.267.66.66 0 0 0-.265.905l3.362 6.13c-6.606 3.408-11.068 9.893-11.064 17.34l43.365-.003c.003-7.446-4.45-13.92-11.047-17.332zm-20.5 9.48a1.818 1.818 0 0 1 .002-3.635c1.006 0 1.82.82 1.82 1.818a1.82 1.82 0 0 1-1.82 1.82zm19.747-.003c-1.002 0-1.82-.81-1.818-1.818 0-.996.814-1.816 1.818-1.82a1.83 1.83 0 0 1 1.815 1.822 1.816 1.816 0 0 1-1.815 1.815zM83.01 41.038a4.813 4.813 0 1 0-9.628.002l.002 20.16A4.81 4.81 0 0 0 78.2 66.01a4.81 4.81 0 0 0 4.812-4.815l-.003-20.16zM71.523 37.13l-43.04.01.008 31.24c0 .82.208 1.58.547 2.267.837 1.697 2.567 2.872 4.59 2.872h3.5l.003 10.665a4.816 4.816 0 0 0 5.78 4.717 4.82 4.82 0 0 0 3.846-4.718l-.003-10.666h6.5v10.666A4.825 4.825 0 0 0 57.1 88.9a4.816 4.816 0 0 0 5.784-4.72l-.003-10.663 3.512-.002c.96 0 1.85-.28 2.62-.742 1.5-.897 2.518-2.52 2.52-4.398l-.01-31.244zM21.8 36.23a4.817 4.817 0 0 0-4.813 4.813l.003 20.16c0 1.684.862 3.157 2.164 4.018.76.505 1.67.8 2.65.803a4.815 4.815 0 0 0 4.814-4.82v-20.16a4.817 4.817 0 0 0-4.817-4.814z"/></g></svg>