<svg xmlns="http://www.w3.org/2000/svg" width="100" height="100" viewBox="0 0 100 100"><path d="M36.217 40.748a2.65 2.65 0 0 0-1.878-.78c-.7 0-1.385.28-1.882.776l-6.322 6.315a2.653 2.653 0 0 0-.003 3.758L47.53 72.26c.43.432.987.697 1.58.762.1.016.2.02.304.02.007 0 .013 0 .02-.002l.002.002a2.687 2.687 0 0 0 1.9-.78L89.72 33.855a2.654 2.654 0 0 0 .002-3.757l-6.312-6.323A2.626 2.626 0 0 0 81.53 23a2.64 2.64 0 0 0-1.884.775l-30.208 30.22-13.22-13.247z"/><path d="M87.348 43.137l-32.513 32.53a7.4 7.4 0 0 1-5.24 2.153l-1.443-.002-.304-.204a7.39 7.39 0 0 1-3.518-1.97L22.94 54.208a7.346 7.346 0 0 1-2.175-5.238c0-1.98.774-3.845 2.175-5.242l6.33-6.322a7.483 7.483 0 0 1 5.236-2.157c1.952 0 3.862.796 5.234 2.174l9.863 9.88 20.953-20.96L56.6 12.387c-3.695-3.693-9.74-3.693-13.433 0L12.27 43.283c-3.694 3.693-3.694 9.74 0 13.433L43.17 87.613c3.694 3.693 9.737 3.693 13.432 0l30.897-30.897c3.694-3.692 3.694-9.737 0-13.433l-.15-.146z"/></svg>