<svg xmlns="http://www.w3.org/2000/svg" width="100" height="100" viewBox="0 0 100 100"><path d="M94.762 48.994c0-5.688-4.63-10.314-10.315-10.314-2.463 0-4.767.9-6.626 2.477-.06.037-.12.072-.18.11-6.707-4.29-15.6-7.03-25.44-7.403l5.873-16.698L72.73 20.67c.01 4.633 3.78 8.4 8.42 8.4 4.64 0 8.42-3.777 8.42-8.42 0-4.647-3.78-8.424-8.42-8.424-3.53 0-6.545 2.182-7.795 5.26l-17.364-4.15-7.21 20.49c-10.26.193-19.556 2.97-26.513 7.404-1.873-1.625-4.21-2.55-6.718-2.55-5.688 0-10.31 4.626-10.31 10.313 0 3.518 1.814 6.768 4.755 8.66a18.114 18.114 0 0 0-.293 3.123c0 14.886 18.043 26.997 40.22 26.997 22.18 0 40.223-12.11 40.223-26.997a18.14 18.14 0 0 0-.272-3.035c3.02-1.877 4.89-5.174 4.89-8.746zM63.598 62.347a6.333 6.333 0 0 1-6.334-6.338 6.337 6.337 0 1 1 6.334 6.338zm1.26 10.806c-.19.194-4.732 4.82-15.008 4.82-10.333 0-14.463-4.688-14.636-4.89-.58-.677-.5-1.703.178-2.283a1.63 1.63 0 0 1 2.278.166c.092.104 3.54 3.77 12.18 3.77 8.784 0 12.64-3.797 12.68-3.834a1.62 1.62 0 0 1 2.33 2.25zM30.81 56.01a6.337 6.337 0 1 1 12.672.006 6.337 6.337 0 0 1-12.67-.007z"/></svg>