<svg xmlns="http://www.w3.org/2000/svg" width="100" height="100" viewBox="0 0 100 100"><g fill-rule="evenodd" clip-rule="evenodd"><path d="M65.193 43.13c-1.03 0-2.022.22-2.975.657-.954.438-1.854.992-2.704 1.66a24.39 24.39 0 0 0-2.434 2.202c-.772.798-1.468 1.53-2.086 2.2a35.8 35.8 0 0 0 2.163 2.278 18.21 18.21 0 0 0 2.472 2.008 13.16 13.16 0 0 0 2.742 1.43c.952.36 1.97.54 3.05.54 1.906 0 3.374-.618 4.405-1.854 1.03-1.236 1.545-2.754 1.545-4.557 0-1.802-.554-3.348-1.66-4.635-1.108-1.285-2.614-1.93-4.52-1.93zM43.562 47.65a26.225 26.225 0 0 0-2.588-2.202 15.07 15.07 0 0 0-2.82-1.66c-.98-.438-1.958-.657-2.935-.657-1.804 0-3.234.684-4.29 2.048-1.055 1.364-1.583 2.896-1.583 4.596 0 1.854.54 3.373 1.622 4.557 1.08 1.186 2.574 1.777 4.48 1.777.977 0 1.956-.193 2.935-.58a14.388 14.388 0 0 0 2.78-1.467c.876-.592 1.7-1.26 2.473-2.008a32.164 32.164 0 0 0 2.086-2.2 56.593 56.593 0 0 0-2.162-2.203z"/><path d="M79 14H21a7 7 0 0 0-7 7v58a7 7 0 0 0 7 7h58a7 7 0 0 0 7-7V21a7 7 0 0 0-7-7zm-1.292 41.102c-.618 1.75-1.494 3.282-2.627 4.596-1.133 1.312-2.537 2.344-4.21 3.09s-3.54 1.12-5.6 1.12c-1.597 0-3.09-.245-4.48-.734a17.68 17.68 0 0 1-3.902-1.93 23.25 23.25 0 0 1-3.438-2.782 52.75 52.75 0 0 1-3.09-3.282 413.808 413.808 0 0 1-3.168 3.282 22.075 22.075 0 0 1-3.284 2.78c-1.16.8-2.42 1.442-3.785 1.932-1.365.49-2.897.733-4.597.733-2.112 0-3.992-.373-5.64-1.12-1.65-.745-3.065-1.75-4.25-3.012-1.185-1.26-2.085-2.768-2.703-4.52-.618-1.75-.927-3.63-.927-5.638s.295-3.873.888-5.6c.59-1.725 1.455-3.217 2.588-4.48 1.132-1.26 2.523-2.264 4.172-3.012 1.648-.745 3.502-1.12 5.562-1.12 1.7 0 3.257.26 4.674.774a16.842 16.842 0 0 1 3.94 2.045c1.21.85 2.343 1.83 3.4 2.935a71.194 71.194 0 0 1 3.128 3.515 76.135 76.135 0 0 1 3.05-3.476 21.6 21.6 0 0 1 3.4-2.976c1.21-.85 2.523-1.53 3.94-2.046 1.416-.515 2.948-.773 4.597-.773 2.06 0 3.914.36 5.562 1.08 1.647.723 3.038 1.714 4.172 2.975 1.13 1.262 2.007 2.742 2.626 4.44.618 1.7.927 3.554.927 5.562s-.306 3.89-.925 5.64z"/></g></svg>