<svg xmlns="http://www.w3.org/2000/svg" width="100" height="100" viewBox="0 0 100 100"><path d="M73.213 38.25a11.72 11.72 0 0 0-4.19.782L38.5 21.408c.017-.26.04-.517.04-.78 0-6.49-5.262-11.75-11.75-11.75-6.49 0-11.75 5.26-11.75 11.75s5.26 11.75 11.75 11.75c2.562 0 4.926-.83 6.857-2.223L61.988 46.52c-.34 1.1-.525 2.27-.525 3.48 0 1.233.19 2.42.543 3.535L33.693 69.88a11.68 11.68 0 0 0-6.906-2.257c-6.49 0-11.75 5.26-11.75 11.75s5.26 11.75 11.75 11.75 11.75-5.26 11.75-11.75c0-.243-.022-.48-.036-.72l30.59-17.66a11.7 11.7 0 0 0 4.123.757c6.49 0 11.75-5.26 11.75-11.75s-5.26-11.75-11.75-11.75z"/></svg>