<svg xmlns="http://www.w3.org/2000/svg" width="100" height="100" viewBox="0 0 100 100"><path d="M46.347 44.786c2.026-.797 7.307-1.86 11.093-1.328l4.75 9.896 13.05-3.09c.665-.132.997-.995 0-1.892-8.17-6.575-16.24-7.87-32.18-4.383l9.465 19.726-33.044 9.316v5.995c0 .22.09.42.234.562a.79.79 0 0 0 .563.232h59.248a.794.794 0 0 0 .796-.795V56.123L55.116 62.82S48.04 48.57 46.347 44.785z"/><path d="M79.524 19.513H20.276a.775.775 0 0 0-.437.148.782.782 0 0 0-.36.65v25.81c1.265-.978 5.98-4.47 10.527-5.918l-3.886-8.967h10.96s2.89 6.276 2.89 6.376c3.985-1.194 23.114-4.283 40.15 3.09l.2.146V20.31a.78.78 0 0 0-.36-.648.766.766 0 0 0-.436-.15zM27.185 61.89c2.458-.53 11.823-3.056 11.823-3.056l-6.045-12.42c-1.66.464-8.634 3.652-8.103 14.346 0 0-.133 1.66 2.325 1.13z"/><path d="M80.022 14.133H19.978A5.98 5.98 0 0 0 14 20.11v59.78c0 3.3 2.677 5.977 5.978 5.977h60.044A5.98 5.98 0 0 0 86 79.89V20.11a5.98 5.98 0 0 0-5.978-5.977zm2.29 64.893c0 1.538-1.25 2.79-2.788 2.79H20.276a2.793 2.793 0 0 1-2.79-2.79V20.31a2.793 2.793 0 0 1 2.79-2.79h59.248c1.538 0 2.79 1.252 2.79 2.79v58.716z"/></svg>