<svg xmlns="http://www.w3.org/2000/svg" width="100" height="100" viewBox="0 0 100 100"><path fill="#231F20" d="M91.963 80.982l.023-.013L84.7 68.35h2.868v-.013c.598 0 1.083-.485 1.083-1.083 0-.185-.058-.35-.14-.503l.02-.01-6.737-11.67h1.64v-.01a.773.773 0 0 0 .772-.77.758.758 0 0 0-.1-.36l.013-.008-9.802-16.98-.01.007a1.322 1.322 0 0 0-1.186-.754c-.524 0-.968.31-1.185.75l-.005-.002-9.802 16.978h.002a.75.75 0 0 0-.105.367c0 .426.346.772.773.772v.01h1.66l-6.736 11.668h.003a1.06 1.06 0 0 0-.147.514c0 .598.485 1.082 1.083 1.082v.012h2.895l-2.1 3.638-8.4-14.548h4.047v-.018a1.53 1.53 0 0 0 1.528-1.528c0-.26-.07-.502-.186-.717l.015-.01-9.508-16.467h2.313v-.012a1.09 1.09 0 0 0 1.09-1.09c0-.187-.058-.354-.14-.507l.02-.01L36.4 13.124l-.005.003a1.873 1.873 0 0 0-1.683-1.06c-.758 0-1.408.452-1.704 1.1L19.2 37.082l.004.002a1.06 1.06 0 0 0-.148.516 1.09 1.09 0 0 0 1.09 1.092v.012h2.345l-9.394 16.272a1.516 1.516 0 0 0-.316.92 1.53 1.53 0 0 0 1.528 1.528v.018h4.084L8.252 75.007a1.85 1.85 0 0 0-.387 1.128 1.87 1.87 0 0 0 1.87 1.87v.02h19.78v8.43c0 .816.66 1.478 1.476 1.478h7.384c.815 0 1.477-.66 1.477-1.477v-8.43h16.12l-1.698 2.943h.003c-.104.19-.18.397-.18.63 0 .73.593 1.324 1.325 1.324v.015h14.016v3.94c0 .578.47 1.046 1.046 1.046h5.232c.578 0 1.046-.468 1.046-1.046v-3.94h14.05v-.016c.732 0 1.326-.593 1.326-1.325 0-.228-.072-.432-.173-.618z"/></svg>