<svg xmlns="http://www.w3.org/2000/svg" width="100" height="100" viewBox="0 0 100 100"><path d="M99.483 33.642c-.03-.03-.063-.05-.094-.077L87.157 21.327a6.12 6.12 0 0 1-7.722-.763 6.12 6.12 0 0 1-.76-7.725L66.357.515a1.766 1.766 0 0 0-2.494 0L.52 63.862l-.003.003c-.69.69-.69 1.805 0 2.494l12.326 12.313a6.12 6.12 0 0 1 8.49 8.48L33.497 99.31c.046.06.09.122.144.176.69.69 1.804.69 2.493 0l63.348-63.348c.69-.69.69-1.806 0-2.494zm-13.965 2.493L36.136 85.518c-.69.69-1.804.69-2.493 0l-19.16-19.16a1.762 1.762 0 0 1 0-2.493l49.382-49.382a1.764 1.764 0 0 1 2.493 0l19.16 19.16a1.76 1.76 0 0 1 0 2.492z"/><path d="M61.923 51.52l-6.82-3.258.83-7.134a.513.513 0 0 0-.872-.42l-5.096 5.097-6.653-3.178a.512.512 0 0 0-.682.68l3.18 6.656-5.1 5.096a.515.515 0 0 0-.098.585c.095.195.304.31.52.284l7.132-.83 3.26 6.822a.514.514 0 0 0 .96-.098l1.87-7.476 7.477-1.87a.52.52 0 0 0 .386-.446.514.514 0 0 0-.293-.51z"/></svg>