<svg xmlns="http://www.w3.org/2000/svg" width="100" height="100" viewBox="0 0 100 100"><path d="M30.278 17.553H19.823a2.27 2.27 0 0 0-2.27 2.27v10.453a2.27 2.27 0 0 0 2.27 2.27h10.454a2.27 2.27 0 0 0 2.27-2.27V19.823a2.27 2.27 0 0 0-2.27-2.27zM55.227 17.553H44.773a2.27 2.27 0 0 0-2.27 2.27v10.453a2.27 2.27 0 0 0 2.27 2.27h10.454a2.27 2.27 0 0 0 2.27-2.27V19.823a2.27 2.27 0 0 0-2.27-2.27zM82.446 19.822a2.27 2.27 0 0 0-2.27-2.27H69.723a2.27 2.27 0 0 0-2.27 2.27v10.454a2.27 2.27 0 0 0 2.27 2.27h10.454a2.27 2.27 0 0 0 2.27-2.268V19.822zM30.278 42.506H19.823a2.27 2.27 0 0 0-2.27 2.27V55.23a2.27 2.27 0 0 0 2.27 2.27h10.454a2.27 2.27 0 0 0 2.27-2.27V44.776a2.27 2.27 0 0 0-2.27-2.27zM55.227 42.506H44.773a2.27 2.27 0 0 0-2.27 2.27V55.23a2.27 2.27 0 0 0 2.27 2.27h10.454a2.27 2.27 0 0 0 2.27-2.27V44.776a2.27 2.27 0 0 0-2.27-2.27zM80.177 42.506H69.722a2.27 2.27 0 0 0-2.27 2.27V55.23a2.27 2.27 0 0 0 2.27 2.27h10.454a2.27 2.27 0 0 0 2.27-2.27V44.777a2.27 2.27 0 0 0-2.27-2.27zM30.278 67.454H19.823a2.27 2.27 0 0 0-2.27 2.27v10.453a2.27 2.27 0 0 0 2.27 2.27h10.454a2.27 2.27 0 0 0 2.27-2.27V69.723a2.268 2.268 0 0 0-2.27-2.27zM55.227 67.454H44.773a2.27 2.27 0 0 0-2.27 2.27v10.453a2.27 2.27 0 0 0 2.27 2.27h10.454a2.27 2.27 0 0 0 2.27-2.27V69.723a2.27 2.27 0 0 0-2.27-2.27zM80.177 67.454H69.722a2.27 2.27 0 0 0-2.27 2.27v10.452a2.27 2.27 0 0 0 2.27 2.27h10.454a2.27 2.27 0 0 0 2.27-2.268V69.723a2.268 2.268 0 0 0-2.27-2.27z"/></svg>