<svg xmlns="http://www.w3.org/2000/svg" width="100" height="100" viewBox="0 0 100 100"><path d="M79.437 36.83C75.927 23.85 64.973 14.75 52.303 14.75c-8.835 0-17.065 4.454-22.414 12.018a20.172 20.172 0 0 0-4.502-.514C13.5 26.252 3.825 36.79 3.825 49.75c0 4.646 1.25 9.147 3.612 13.017.555.906 1.49 1.45 2.49 1.45H29.85c.143-9.266 7.688-16.735 16.987-16.735 9.3 0 16.843 7.47 16.987 16.734H90.77c.946 0 1.835-.485 2.402-1.315a17.25 17.25 0 0 0 3.004-9.767c0-9.656-7.816-17.47-16.74-16.302z"/><path d="M57.345 70.33l-9.918-13.86a.954.954 0 0 0-1.56.004L36.013 70.33a.963.963 0 0 0-.07.996c.165.32.495.518.854.518h4.634v12.45c0 .53.43.96.96.96h8.58c.53 0 .957-.43.957-.96v-12.45h4.638a.96.96 0 0 0 .78-1.514z"/></svg>