<svg xmlns="http://www.w3.org/2000/svg" width="100" height="100" viewBox="0 0 100 100"><g fill="#231F20"><path d="M50 12.5c-20.712 0-37.5 16.793-37.5 37.502C12.5 70.712 29.288 87.5 50 87.5s37.5-16.788 37.5-37.498C87.5 29.292 70.712 12.5 50 12.5zm0 65.06c-15.2 0-27.56-12.36-27.56-27.558C22.44 34.807 34.802 22.44 50 22.44c15.198 0 27.56 12.367 27.56 27.562 0 15.196-12.362 27.56-27.56 27.56z"/><circle cx="49.63" cy="32.546" r="4.723"/><path d="M65.892 48.19l-8.973-8.975a2.49 2.49 0 0 0-.09-.09l-.06-.06-.007.006a2.205 2.205 0 0 0-1.457-.555c-.05 0-.098.012-.148.015H44.695c-.56 0-1.067.213-1.458.556l-.005-.005-.055.056a1.572 1.572 0 0 0-.1.1l-8.968 8.968.014.015a1.986 1.986 0 1 0 2.808 2.81h.003l6.673-6.672v.004a.634.634 0 0 1 1.086.443V69.27a2.323 2.323 0 0 0 4.645 0V56.936h.016a.643.643 0 0 1 1.286 0h.017V69.27a2.323 2.323 0 0 0 4.644 0V44.874h.02c-.005-.034-.02-.064-.02-.1 0-.35.284-.632.635-.632a.62.62 0 0 1 .4.155v-.007l.022.022c.015.014.03.027.042.042l6.66 6.66.003-.002a1.986 1.986 0 1 0 2.808-2.81l.017-.013z"/></g></svg>