<svg xmlns="http://www.w3.org/2000/svg" width="100" height="100" viewBox="0 0 100 100"><path d="M64.603 35.504a2.777 2.777 0 0 0-2.774-2.72c-.048 0-.092.012-.14.014h-2.038V17.774c0-.93-.755-1.683-1.684-1.684H41.765v.03a1.68 1.68 0 0 0-1.386 1.654v15.022h-2.053c-.043-.002-.083-.013-.126-.013a2.776 2.776 0 0 0-2.773 2.72h-.036v45.625h.002a2.782 2.782 0 0 0 2.78 2.78H61.83a2.78 2.78 0 0 0 2.78-2.78V35.505h-.007zm-9.938-2.706h-9.33v-11.72h9.33v11.72z"/><path d="M47.506 27.933h4.988v2.072h-4.988z"/></svg>