<svg xmlns="http://www.w3.org/2000/svg" width="100" height="100" viewBox="0 0 100 100"><path d="M88.553 43.44L78.277 42.43a29.016 29.016 0 0 0-2.936-7.06l6.562-7.992c.703-.86.64-2.11-.145-2.893l-6.24-6.243a2.153 2.153 0 0 0-2.894-.142L64.63 24.66a29.042 29.042 0 0 0-7.06-2.936l-1.01-10.278A2.158 2.158 0 0 0 54.41 9.5H45.59a2.16 2.16 0 0 0-2.15 1.946l-1.01 10.28a28.903 28.903 0 0 0-7.054 2.937L27.378 18.1c-.4-.33-.884-.49-1.37-.49-.554 0-1.104.21-1.524.632l-6.24 6.24a2.158 2.158 0 0 0-.145 2.894l6.565 7.996a28.914 28.914 0 0 0-2.936 7.057L11.447 43.44A2.154 2.154 0 0 0 9.5 45.587v8.825c0 1.11.843 2.04 1.947 2.146l10.28 1.013a28.87 28.87 0 0 0 2.937 7.055l-6.562 7.994a2.15 2.15 0 0 0 .14 2.894l6.24 6.242a2.155 2.155 0 0 0 2.894.142l7.993-6.562a29.03 29.03 0 0 0 7.06 2.938l1.01 10.28a2.158 2.158 0 0 0 2.148 1.945h8.823c1.11 0 2.04-.843 2.15-1.947l1.01-10.278c2.47-.66 4.83-1.643 7.06-2.94l7.993 6.563a2.156 2.156 0 0 0 2.894-.142l6.24-6.242a2.15 2.15 0 0 0 .14-2.895l-6.557-7.992a29.02 29.02 0 0 0 2.936-7.057l10.276-1.012a2.157 2.157 0 0 0 1.947-2.146v-8.825c0-1.11-.843-2.037-1.947-2.146zm-38.55 18.51c-6.604 0-11.954-5.35-11.954-11.95 0-6.602 5.35-11.95 11.952-11.95C56.6 38.05 61.95 43.397 61.95 50c0 6.6-5.35 11.95-11.948 11.95z"/></svg>