<svg xmlns="http://www.w3.org/2000/svg" width="100" height="100" viewBox="0 0 100 100"><path d="M86.257 23.405L82.39 27.27l-3.736 3.738-4.76 4.76a9.08 9.08 0 0 1-9.663-9.663l4.76-4.76 3.738-3.737 3.866-3.866c.25-.25.25-.66 0-.91-.046-.047-.1-.075-.155-.104l-.01-.005a.65.65 0 0 0-.102-.043 21.424 21.424 0 0 0-8.75-1.878c-11.938 0-21.617 9.68-21.617 21.618 0 2.28.36 4.475 1.013 6.538L24.428 61.504C16.883 61.626 10.8 67.77 10.8 75.346c0 7.65 6.204 13.853 13.854 13.853 7.574 0 13.72-6.084 13.842-13.63l22.546-22.545a21.602 21.602 0 0 0 6.54 1.012c11.938 0 21.617-9.68 21.617-21.618 0-3.12-.687-6.067-1.878-8.743a.605.605 0 0 0-.05-.118l-.022-.053-.007.007c-.024-.037-.04-.078-.074-.11a.646.646 0 0 0-.913 0zm-55.88 51.94a5.724 5.724 0 1 1-11.448 0 5.724 5.724 0 0 1 11.448 0z"/></svg>