<svg xmlns="http://www.w3.org/2000/svg" width="100" height="100" viewBox="0 0 100 100"><path d="M51.77 75.42a13.883 13.883 0 0 1-7.94 2.487c-7.707 0-13.955-6.248-13.955-13.954 0-2.952.922-5.686 2.487-7.94l-5.348-5.348a21.555 21.555 0 0 0-4.852 13.64c0 11.966 9.7 21.667 21.667 21.667a21.57 21.57 0 0 0 13.648-4.843l-5.708-5.71z"/><circle cx="68.862" cy="21.181" r="7.152"/><path d="M73.35 45.582H57.61l8.976-8.978c.27-.215.515-.458.73-.73l.073-.072-.008-.007c.57-.752.92-1.68.92-2.694a4.47 4.47 0 0 0-2.16-3.818L46.04 17.674l-.017.03a4.454 4.454 0 0 0-1.843-.405c-1.152 0-2.19.447-2.986 1.16l-.006-.006-.06.06c-.077.072-.15.145-.222.222L32.04 27.6l.01.01a4.463 4.463 0 0 0-1.238 3.08c0 2.478 2.01 4.486 4.487 4.486a4.463 4.463 0 0 0 3.08-1.237l.007.007.08-.08.01-.01 6.456-6.456 5.514 3.185-13.01 13.012a21.568 21.568 0 0 0-6.855 3.582l5.307 5.306A13.882 13.882 0 0 1 43.83 50c7.706 0 13.953 6.247 13.953 13.953 0 2.952-.922 5.686-2.487 7.94l5.666 5.667a21.57 21.57 0 0 0 4.534-13.256c0-3.507-.838-6.816-2.317-9.746h5.682v18.37a4.488 4.488 0 0 0 8.976 0V50.07a4.488 4.488 0 0 0-4.488-4.486z"/></svg>