<svg xmlns="http://www.w3.org/2000/svg" width="100" height="100" viewBox="0 0 100 100"><path fill="#231F20" d="M50 12.5c-20.712 0-37.5 16.793-37.5 37.502C12.5 70.712 29.288 87.5 50 87.5s37.5-16.788 37.5-37.498C87.5 29.292 70.712 12.5 50 12.5zM22.897 54.97h5.752a37.328 37.328 0 0 0 8.825 19.568c-7.5-3.844-13.015-11.022-14.578-19.57zm5.752-9.94h-5.753c1.564-8.546 7.078-15.724 14.58-19.568a37.33 37.33 0 0 0-8.828 19.568zm16.38 23.03a27.468 27.468 0 0 1-6.313-13.09h6.313v13.09zm0-23.03h-6.313a27.474 27.474 0 0 1 6.313-13.088V45.03zm32.072 0h-5.75a37.328 37.328 0 0 0-8.826-19.567c7.5 3.845 13.013 11.023 14.576 19.567zM54.97 68.057V54.97h6.313a27.487 27.487 0 0 1-6.313 13.087zm0-23.027V31.94a27.468 27.468 0 0 1 6.313 13.09H54.97zm7.553 29.51a37.33 37.33 0 0 0 8.828-19.57h5.753c-1.563 8.547-7.078 15.725-14.58 19.57z"/></svg>