<svg xmlns="http://www.w3.org/2000/svg" width="100" height="100" viewBox="0 0 100 100"><path d="M84.707 68.752L65.95 49.998 84.7 31.246a1.99 1.99 0 0 0 0-2.813L71.567 15.295a1.99 1.99 0 0 0-2.814 0L50 34.047 31.25 15.295c-.747-.747-2.068-.747-2.815 0L15.297 28.43a1.992 1.992 0 0 0 0 2.815L34.05 49.998 15.294 68.753a1.993 1.993 0 0 0 0 2.814L28.43 84.704a1.988 1.988 0 0 0 2.814 0L50 65.95l18.755 18.753c.39.388.896.583 1.407.583.51 0 1.02-.195 1.408-.583l13.138-13.137a1.99 1.99 0 0 0 0-2.814z"/></svg>