<svg xmlns="http://www.w3.org/2000/svg" width="100" height="100" viewBox="0 0 100 100"><path d="M56.774 10.39c-17.68 0-32 14.33-32 32a31.845 31.845 0 0 0 4.588 16.518L13.845 74.423l.054.054c-1.657 1.585-2.674 3.835-2.674 6.378 0 4.913 3.913 8.755 8.82 8.754 2.508-.002 4.75-1.005 6.35-2.637l.04.04 16.007-16.01a31.865 31.865 0 0 0 14.33 3.388c17.68 0 32-14.326 32-32 0-17.67-14.32-32-32-32zm.194 51.418c-11.05 0-20-8.954-20-20 0-11.044 8.95-20 20-20s20 8.955 20 20c0 11.046-8.95 20-20 20z"/><path d="M68.74 37.1H45.196a1.57 1.57 0 0 0-1.57 1.568v6.278c0 .867.702 1.57 1.57 1.57H68.74a1.57 1.57 0 0 0 1.57-1.57v-6.278a1.57 1.57 0 0 0-1.57-1.57z"/></svg>